<svg xmlns="http://www.w3.org/2000/svg" xmlns:xlink="http://www.w3.org/1999/xlink" width="500" zoomAndPan="magnify" viewBox="0 0 375 374.999991" height="500" preserveAspectRatio="xMidYMid meet" version="1.0"><defs><clipPath id="ca9b86fa0f"><path d="M 179.75 6.417969 L 332.984375 6.417969 L 332.984375 185.191406 L 179.75 185.191406 Z M 179.75 6.417969 " clip-rule="nonzero"/></clipPath><clipPath id="c3d3955a7b"><path d="M 2 118 L 177 118 L 177 291 L 2 291 Z M 2 118 " clip-rule="nonzero"/></clipPath><clipPath id="32afdf848b"><path d="M 235.5625 224.625 L 109.152344 351.035156 L 0.800781 242.683594 L 127.210938 116.273438 Z M 235.5625 224.625 " clip-rule="nonzero"/></clipPath><clipPath id="f8f71ea60b"><path d="M 236.5 225.5625 L 110.089844 351.972656 L 0.0976562 241.980469 L 126.507812 115.570312 Z M 236.5 225.5625 " clip-rule="nonzero"/></clipPath><clipPath id="10b50d55df"><path d="M 200 191 L 373 191 L 373 366 L 200 366 Z M 200 191 " clip-rule="nonzero"/></clipPath><clipPath id="b0193c3c33"><path d="M 266.488281 424.386719 L 140.078125 297.976562 L 248.429688 189.625 L 374.839844 316.035156 Z M 266.488281 424.386719 " clip-rule="nonzero"/></clipPath><clipPath id="525793d06f"><path d="M 265.550781 425.324219 L 139.140625 298.914062 L 249.132812 188.921875 L 375.542969 315.332031 Z M 265.550781 425.324219 " clip-rule="nonzero"/></clipPath><clipPath id="b9cabc02b0"><path d="M 64 197 L 141 197 L 141 231 L 64 231 Z M 64 197 " clip-rule="nonzero"/></clipPath><clipPath id="1075cea503"><path d="M 68.867188 188.824219 L 145.113281 209.253906 L 130.09375 265.320312 L 53.84375 244.886719 Z M 68.867188 188.824219 " clip-rule="nonzero"/></clipPath><clipPath id="1105b05e80"><path d="M 68.867188 188.824219 L 145.113281 209.253906 L 130.09375 265.320312 L 53.84375 244.886719 Z M 68.867188 188.824219 " clip-rule="nonzero"/></clipPath><clipPath id="2eb9e1b04b"><path d="M 72 213 L 127 213 L 127 239 L 72 239 Z M 72 213 " clip-rule="nonzero"/></clipPath><clipPath id="2e326d45c6"><path d="M 68.867188 188.824219 L 145.113281 209.253906 L 130.09375 265.320312 L 53.84375 244.886719 Z M 68.867188 188.824219 " clip-rule="nonzero"/></clipPath><clipPath id="204b063863"><path d="M 68.867188 188.824219 L 145.113281 209.253906 L 130.09375 265.320312 L 53.84375 244.886719 Z M 68.867188 188.824219 " clip-rule="nonzero"/></clipPath><clipPath id="4db1a51a18"><path d="M 79 228 L 114 228 L 114 247 L 79 247 Z M 79 228 " clip-rule="nonzero"/></clipPath><clipPath id="21f252f52a"><path d="M 68.867188 188.824219 L 145.113281 209.253906 L 130.09375 265.320312 L 53.84375 244.886719 Z M 68.867188 188.824219 " clip-rule="nonzero"/></clipPath><clipPath id="2986d4dc32"><path d="M 68.867188 188.824219 L 145.113281 209.253906 L 130.09375 265.320312 L 53.84375 244.886719 Z M 68.867188 188.824219 " clip-rule="nonzero"/></clipPath><clipPath id="b8f7200a24"><path d="M 88 244 L 99 244 L 99 256 L 88 256 Z M 88 244 " clip-rule="nonzero"/></clipPath><clipPath id="d94919fd39"><path d="M 68.867188 188.824219 L 145.113281 209.253906 L 130.09375 265.320312 L 53.84375 244.886719 Z M 68.867188 188.824219 " clip-rule="nonzero"/></clipPath><clipPath id="41f27dcad5"><path d="M 68.867188 188.824219 L 145.113281 209.253906 L 130.09375 265.320312 L 53.84375 244.886719 Z M 68.867188 188.824219 " clip-rule="nonzero"/></clipPath><clipPath id="65aee14639"><path d="M 200.953125 61.648438 L 258 61.648438 L 258 118 L 200.953125 118 Z M 200.953125 61.648438 " clip-rule="nonzero"/></clipPath><clipPath id="e7fb02735d"><path d="M 244 104 L 270.605469 104 L 270.605469 131 L 244 131 Z M 244 104 " clip-rule="nonzero"/></clipPath><clipPath id="bfcf1abfdd"><path d="M 230 253 L 339 253 L 339 352 L 230 352 Z M 230 253 " clip-rule="nonzero"/></clipPath><clipPath id="a9753d3c1f"><path d="M 216.082031 268.792969 L 317.160156 242.359375 L 338.894531 325.46875 L 237.816406 351.902344 Z M 216.082031 268.792969 " clip-rule="nonzero"/></clipPath><clipPath id="8b4c35f533"><path d="M 216.082031 268.792969 L 317.160156 242.359375 L 338.894531 325.46875 L 237.816406 351.902344 Z M 216.082031 268.792969 " clip-rule="nonzero"/></clipPath></defs><g clip-path="url(#ca9b86fa0f)"><path fill="#022437" d="M 192.179688 184.546875 L 329.824219 102.738281 L 329.828125 102.695312 C 332.496094 101.15625 334.3125 98.304688 334.3125 95.003906 C 334.3125 92.042969 332.851562 89.4375 330.632812 87.816406 L 330.632812 87.792969 L 330.539062 87.738281 C 330.117188 87.4375 329.664062 87.183594 329.191406 86.960938 L 192.121094 7.964844 C 190.703125 7.015625 189 6.460938 187.167969 6.460938 C 182.242188 6.460938 178.25 10.453125 178.25 15.378906 L 178.25 177.175781 C 178.25 182.097656 182.242188 186.089844 187.167969 186.089844 C 189.027344 186.089844 190.75 185.519531 192.179688 184.546875 Z M 192.179688 184.546875 " fill-opacity="1" fill-rule="nonzero"/></g><g clip-path="url(#c3d3955a7b)"><g clip-path="url(#32afdf848b)"><g clip-path="url(#f8f71ea60b)"><path fill="#f1931b" d="M 10.042969 251.015625 L 10.042969 251.019531 L 165.21875 290.5 L 165.253906 290.472656 C 168.226562 291.265625 171.527344 290.535156 173.863281 288.199219 C 175.957031 286.105469 176.765625 283.234375 176.34375 280.519531 L 176.359375 280.503906 L 176.332031 280.398438 C 176.246094 279.886719 176.101562 279.386719 175.925781 278.894531 L 134.863281 126.113281 C 134.53125 124.4375 133.71875 122.84375 132.425781 121.546875 C 128.941406 118.0625 123.292969 118.0625 119.8125 121.546875 L 5.40625 235.953125 C 1.921875 239.433594 1.921875 245.082031 5.40625 248.5625 C 6.71875 249.878906 8.34375 250.691406 10.042969 251.015625 Z M 10.042969 251.015625 " fill-opacity="1" fill-rule="nonzero"/></g></g></g><g clip-path="url(#10b50d55df)"><g clip-path="url(#b0193c3c33)"><g clip-path="url(#525793d06f)"><path fill="#1b718a" d="M 240.097656 198.867188 L 240.09375 198.867188 L 200.613281 354.046875 L 200.640625 354.078125 C 199.84375 357.050781 200.578125 360.351562 202.910156 362.6875 C 205.003906 364.78125 207.878906 365.589844 210.59375 365.167969 L 210.609375 365.183594 L 210.714844 365.15625 C 211.226562 365.070312 211.726562 364.929688 212.21875 364.75 L 365 323.6875 C 366.671875 323.355469 368.269531 322.546875 369.566406 321.25 C 373.050781 317.765625 373.050781 312.121094 369.566406 308.636719 L 255.160156 194.230469 C 251.675781 190.746094 246.03125 190.75 242.550781 194.230469 C 241.234375 195.546875 240.417969 197.167969 240.097656 198.867188 Z M 240.097656 198.867188 " fill-opacity="1" fill-rule="nonzero"/></g></g></g><g clip-path="url(#b9cabc02b0)"><g clip-path="url(#1075cea503)"><g clip-path="url(#1105b05e80)"><path fill="#f1e9e8" d="M 139.804688 224.125 C 136.179688 217.84375 131.433594 212.460938 125.695312 208.125 C 120.15625 203.9375 113.9375 200.898438 107.203125 199.097656 C 100.46875 197.292969 93.5625 196.8125 86.671875 197.667969 C 79.539062 198.558594 72.734375 200.84375 66.457031 204.472656 C 64.355469 205.683594 63.636719 208.371094 64.847656 210.472656 C 66.0625 212.574219 68.746094 213.292969 70.847656 212.078125 C 92.292969 199.699219 119.8125 207.070312 132.195312 228.519531 C 132.800781 229.566406 133.777344 230.273438 134.863281 230.5625 C 135.949219 230.855469 137.144531 230.730469 138.195312 230.125 C 140.296875 228.914062 141.015625 226.226562 139.804688 224.125 Z M 139.804688 224.125 " fill-opacity="1" fill-rule="nonzero"/></g></g></g><g clip-path="url(#2eb9e1b04b)"><g clip-path="url(#2e326d45c6)"><g clip-path="url(#204b063863)"><path fill="#f1e9e8" d="M 103.054688 214.539062 C 93.234375 211.90625 82.96875 213.261719 74.148438 218.351562 C 72.164062 219.5 71.484375 222.039062 72.628906 224.023438 C 73.777344 226.011719 76.316406 226.691406 78.300781 225.542969 C 92.523438 217.332031 110.777344 222.222656 118.988281 236.445312 C 119.5625 237.4375 120.480469 238.105469 121.507812 238.378906 C 122.535156 238.65625 123.667969 238.539062 124.660156 237.964844 C 126.644531 236.820312 127.328125 234.28125 126.179688 232.292969 C 121.089844 223.476562 112.875 217.171875 103.054688 214.539062 Z M 103.054688 214.539062 " fill-opacity="1" fill-rule="nonzero"/></g></g></g><g clip-path="url(#4db1a51a18)"><g clip-path="url(#21f252f52a)"><g clip-path="url(#2986d4dc32)"><path fill="#f1e9e8" d="M 99.175781 229.015625 C 93.203125 227.417969 86.960938 228.238281 81.601562 231.335938 C 79.625 232.476562 78.949219 235 80.089844 236.976562 C 81.230469 238.953125 83.757812 239.628906 85.734375 238.488281 C 92.847656 234.382812 101.976562 236.828125 106.082031 243.941406 C 106.652344 244.929688 107.570312 245.59375 108.589844 245.867188 C 109.609375 246.140625 110.738281 246.023438 111.722656 245.453125 C 113.699219 244.3125 114.378906 241.785156 113.238281 239.8125 C 110.140625 234.449219 105.148438 230.617188 99.175781 229.015625 Z M 99.175781 229.015625 " fill-opacity="1" fill-rule="nonzero"/></g></g></g><g clip-path="url(#b8f7200a24)"><g clip-path="url(#d94919fd39)"><g clip-path="url(#41f27dcad5)"><path fill="#f1e9e8" d="M 98.402344 251.335938 C 98.3125 251.65625 98.195312 251.96875 98.050781 252.265625 C 97.902344 252.566406 97.726562 252.847656 97.523438 253.113281 C 97.320312 253.378906 97.09375 253.621094 96.839844 253.839844 C 96.589844 254.0625 96.320312 254.253906 96.03125 254.421875 C 95.742188 254.589844 95.441406 254.726562 95.125 254.832031 C 94.808594 254.941406 94.484375 255.015625 94.152344 255.058594 C 93.820312 255.101562 93.488281 255.113281 93.15625 255.089844 C 92.824219 255.070312 92.496094 255.015625 92.171875 254.929688 C 91.851562 254.84375 91.539062 254.726562 91.242188 254.578125 C 90.941406 254.429688 90.660156 254.253906 90.394531 254.050781 C 90.128906 253.847656 89.886719 253.621094 89.667969 253.371094 C 89.445312 253.121094 89.253906 252.847656 89.085938 252.558594 C 88.917969 252.269531 88.78125 251.96875 88.675781 251.652344 C 88.566406 251.335938 88.492188 251.011719 88.449219 250.683594 C 88.40625 250.351562 88.394531 250.019531 88.414062 249.6875 C 88.4375 249.351562 88.492188 249.023438 88.578125 248.703125 C 88.664062 248.378906 88.78125 248.070312 88.929688 247.769531 C 89.078125 247.46875 89.253906 247.1875 89.457031 246.921875 C 89.660156 246.65625 89.886719 246.414062 90.136719 246.195312 C 90.386719 245.976562 90.65625 245.78125 90.945312 245.613281 C 91.234375 245.449219 91.539062 245.3125 91.855469 245.203125 C 92.171875 245.097656 92.496094 245.019531 92.824219 244.976562 C 93.15625 244.933594 93.488281 244.921875 93.820312 244.945312 C 94.15625 244.964844 94.484375 245.019531 94.804688 245.105469 C 95.128906 245.191406 95.4375 245.308594 95.738281 245.457031 C 96.039062 245.605469 96.320312 245.78125 96.585938 245.984375 C 96.847656 246.1875 97.09375 246.414062 97.3125 246.664062 C 97.53125 246.917969 97.726562 247.1875 97.894531 247.476562 C 98.058594 247.765625 98.195312 248.066406 98.304688 248.382812 C 98.410156 248.699219 98.488281 249.023438 98.53125 249.355469 C 98.574219 249.683594 98.585938 250.015625 98.5625 250.351562 C 98.542969 250.683594 98.488281 251.011719 98.402344 251.335938 Z M 98.402344 251.335938 " fill-opacity="1" fill-rule="nonzero"/></g></g></g><g clip-path="url(#65aee14639)"><path fill="#f1e9e8" d="M 229.074219 68.675781 C 217.425781 68.675781 207.984375 78.121094 207.984375 89.769531 C 207.984375 101.417969 217.425781 110.863281 229.074219 110.863281 C 240.722656 110.863281 250.167969 101.417969 250.167969 89.769531 C 250.167969 78.121094 240.722656 68.675781 229.074219 68.675781 Z M 200.953125 89.769531 C 200.953125 74.238281 213.542969 61.648438 229.074219 61.648438 C 244.605469 61.648438 257.199219 74.238281 257.199219 89.769531 C 257.199219 105.300781 244.605469 117.890625 229.074219 117.890625 C 213.542969 117.890625 200.953125 105.300781 200.953125 89.769531 Z M 200.953125 89.769531 " fill-opacity="1" fill-rule="evenodd"/></g><path fill="#f1e9e8" d="M 241.378906 89.769531 C 241.378906 82.972656 235.871094 77.464844 229.074219 77.464844 L 229.074219 70.433594 C 239.753906 70.433594 248.410156 79.089844 248.410156 89.769531 Z M 241.378906 89.769531 " fill-opacity="1" fill-rule="evenodd"/><g clip-path="url(#e7fb02735d)"><path fill="#f1e9e8" d="M 249.136719 104.859375 L 270.230469 125.953125 L 265.257812 130.925781 L 244.167969 109.832031 Z M 249.136719 104.859375 " fill-opacity="1" fill-rule="evenodd"/></g><g clip-path="url(#bfcf1abfdd)"><g clip-path="url(#a9753d3c1f)"><g clip-path="url(#8b4c35f533)"><path fill="#f1e9e8" d="M 331.214844 305.679688 L 316.367188 309.5625 L 298.675781 300.574219 C 298.464844 300.464844 298.246094 300.394531 298.023438 300.34375 C 299.039062 294.644531 298.074219 288.785156 297.847656 283.039062 C 304.035156 280.027344 310.066406 276.535156 315.359375 272.097656 C 317.113281 270.25 314.804688 267.09375 312.488281 268.03125 C 308.472656 270.664062 304.664062 273.644531 300.390625 275.882812 C 296.359375 270.101562 292.410156 264.25 288.324219 258.496094 C 285.292969 254.226562 279.511719 252.28125 274.496094 253.726562 C 269.101562 255.105469 263.722656 256.511719 258.347656 257.957031 C 253.199219 259.285156 249.257812 264.105469 248.890625 269.402344 C 248.21875 276.207031 247.625 283.027344 246.96875 289.84375 C 242.285156 289.9375 237.640625 289.398438 233 288.917969 C 230.4375 288.640625 229.371094 292.75 231.78125 293.785156 C 238.632812 295.199219 245.714844 295.222656 252.675781 294.820312 C 255.367188 300.050781 257.398438 305.777344 261.242188 310.304688 C 261.226562 310.332031 261.203125 310.351562 261.183594 310.378906 L 250.15625 326.875 L 235.3125 330.757812 C 233.75 331.167969 232.8125 332.765625 233.222656 334.328125 L 237.015625 348.835938 C 237.425781 350.398438 239.023438 351.335938 240.585938 350.925781 C 242.152344 350.515625 243.085938 348.917969 242.679688 347.355469 L 239.625 335.679688 L 252.714844 332.253906 C 253.40625 332.074219 254.007812 331.644531 254.40625 331.050781 L 265.503906 314.441406 C 269.652344 317.765625 274.671875 319.984375 279.90625 320.941406 C 279.3125 324.089844 278.445312 327.1875 278.039062 330.363281 C 278.15625 332.8125 281.832031 333.574219 282.886719 331.371094 C 283.671875 329.082031 283.960938 326.65625 284.519531 324.304688 C 286.285156 326.101562 287.625 328.398438 289.722656 329.828125 C 291.90625 330.9375 294.371094 327.945312 292.851562 326.035156 C 291.027344 323.597656 288.835938 321.460938 286.890625 319.117188 C 291.089844 315.613281 294.445312 311.085938 296.421875 305.988281 L 314.710938 315.28125 C 315.347656 315.605469 316.082031 315.683594 316.773438 315.503906 L 329.863281 312.078125 L 332.917969 323.757812 C 333.324219 325.320312 334.925781 326.257812 336.488281 325.847656 C 338.050781 325.4375 338.988281 323.839844 338.578125 322.277344 L 334.785156 307.769531 C 334.375 306.207031 332.777344 305.269531 331.214844 305.679688 Z M 292.441406 301.566406 C 290.953125 307.402344 287.214844 312.449219 282.4375 316.046875 C 274.460938 315.253906 266.972656 310.597656 262.867188 303.6875 C 261.132812 300.644531 259.753906 297.414062 258.175781 294.300781 C 270.054688 292.777344 281.710938 289.75 292.796875 285.226562 C 292.976562 290.660156 293.980469 296.234375 292.441406 301.566406 Z M 292.441406 301.566406 " fill-opacity="1" fill-rule="nonzero"/></g></g></g></svg>