<svg xmlns="http://www.w3.org/2000/svg" xmlns:xlink="http://www.w3.org/1999/xlink" width="1024" zoomAndPan="magnify" viewBox="0 0 768 767.999994" height="1024" preserveAspectRatio="xMidYMid meet" version="1.0"><path fill="#ff0000" d="M 662.480469 83.148438 L 551.789062 83.148438 L 551.789062 67.34375 C 551.789062 30.277344 521.632812 0.121094 484.5625 0.121094 L 282.578125 0.121094 C 245.507812 0.121094 215.351562 30.277344 215.351562 67.34375 L 215.351562 83.148438 L 104.65625 83.148438 C 75.660156 83.148438 52.058594 106.742188 52.058594 135.738281 L 52.058594 160.675781 C 52.058594 187.820312 72.734375 210.21875 99.152344 212.984375 L 153.316406 688.257812 C 158.476562 733.644531 196.835938 767.871094 242.523438 767.871094 L 524.609375 767.871094 C 570.296875 767.871094 608.652344 733.644531 613.816406 688.257812 L 667.976562 212.984375 C 694.40625 210.226562 715.074219 187.820312 715.074219 160.675781 L 715.074219 135.738281 C 715.074219 106.742188 691.46875 83.148438 662.472656 83.148438 Z M 249.496094 67.34375 C 249.496094 49.09375 264.332031 34.253906 282.585938 34.253906 L 484.570312 34.253906 C 502.824219 34.253906 517.664062 49.09375 517.664062 67.34375 L 517.664062 83.148438 L 249.496094 83.148438 Z M 579.914062 684.390625 C 576.714844 712.523438 552.941406 733.738281 524.625 733.738281 L 242.539062 733.738281 C 214.226562 733.738281 190.453125 712.523438 187.253906 684.390625 L 133.570312 213.273438 L 633.605469 213.273438 L 579.921875 684.390625 Z M 680.957031 160.675781 C 680.957031 170.855469 672.671875 179.140625 662.492188 179.140625 L 104.65625 179.140625 C 94.476562 179.140625 86.191406 170.855469 86.191406 160.675781 L 86.191406 135.738281 C 86.191406 125.566406 94.476562 117.28125 104.65625 117.28125 L 662.472656 117.28125 C 672.652344 117.28125 680.941406 125.566406 680.941406 135.738281 L 680.941406 160.675781 Z M 680.957031 160.675781 " fill-opacity="1" fill-rule="nonzero"/><path fill="#ff0000" d="M 383.570312 641.367188 C 392.992188 641.367188 400.636719 633.71875 400.636719 624.296875 L 400.636719 322.714844 C 400.636719 313.292969 392.992188 305.648438 383.570312 305.648438 C 374.148438 305.648438 366.503906 313.292969 366.503906 322.714844 L 366.503906 624.296875 C 366.503906 633.71875 374.148438 641.367188 383.570312 641.367188 Z M 383.570312 641.367188 " fill-opacity="1" fill-rule="nonzero"/><path fill="#ff0000" d="M 485.59375 640.570312 C 486.15625 640.632812 486.722656 640.65625 487.265625 640.65625 C 495.953125 640.65625 503.378906 634.070312 504.230469 625.246094 L 533.464844 325.078125 C 534.378906 315.691406 527.519531 307.34375 518.140625 306.433594 C 508.625 305.46875 500.410156 312.378906 499.496094 321.757812 L 470.261719 621.925781 C 469.347656 631.3125 476.207031 639.660156 485.585938 640.570312 Z M 485.59375 640.570312 " fill-opacity="1" fill-rule="nonzero"/><path fill="#ff0000" d="M 279.871094 640.65625 C 280.417969 640.65625 280.980469 640.632812 281.546875 640.570312 C 290.921875 639.667969 297.785156 631.3125 296.871094 621.925781 L 267.636719 321.757812 C 266.722656 312.378906 258.503906 305.476562 248.992188 306.433594 C 239.613281 307.335938 232.75 315.691406 233.664062 325.078125 L 262.898438 625.246094 C 263.761719 634.0625 271.1875 640.65625 279.863281 640.65625 Z M 279.871094 640.65625 " fill-opacity="1" fill-rule="nonzero"/></svg>