<svg xmlns="http://www.w3.org/2000/svg" xmlns:xlink="http://www.w3.org/1999/xlink" width="1024" zoomAndPan="magnify" viewBox="0 0 768 767.999994" height="1024" preserveAspectRatio="xMidYMid meet" version="1.0"><defs><clipPath id="d588cf23ef"><path d="M 12.097656 12.097656 L 756.097656 12.097656 L 756.097656 756.097656 L 12.097656 756.097656 Z M 12.097656 12.097656 " clip-rule="nonzero"/></clipPath></defs><rect x="-76.8" width="921.6" fill="#ffffff" y="-76.799999" height="921.599993" fill-opacity="1"/><rect x="-76.8" width="921.6" fill="#ffffff" y="-76.799999" height="921.599993" fill-opacity="1"/><g clip-path="url(#d588cf23ef)"><path fill="#000000" d="M 656.101562 177.796875 L 590.402344 177.796875 L 590.402344 112.097656 C 590.402344 56.992188 545.507812 12.097656 490.402344 12.097656 L 112.097656 12.097656 C 56.992188 12.097656 12.097656 56.992188 12.097656 112.097656 L 12.097656 490.402344 C 12.097656 545.507812 56.992188 590.402344 112.097656 590.402344 L 177.796875 590.402344 L 177.796875 656.101562 C 177.796875 711.207031 222.6875 756.097656 277.796875 756.097656 L 656.101562 756.097656 C 711.207031 756.097656 756.097656 711.207031 756.097656 656.101562 L 756.097656 277.796875 C 756.097656 222.6875 711.207031 177.796875 656.101562 177.796875 Z M 49.929688 490.402344 L 49.929688 112.097656 C 49.929688 77.796875 77.796875 49.929688 112.097656 49.929688 L 490.402344 49.929688 C 524.703125 49.929688 552.570312 77.796875 552.570312 112.097656 L 552.570312 490.402344 C 552.570312 524.703125 524.703125 552.570312 490.402344 552.570312 L 112.097656 552.570312 C 77.796875 552.570312 49.929688 524.703125 49.929688 490.402344 Z M 718.269531 656.101562 C 718.269531 690.402344 690.402344 718.269531 656.101562 718.269531 L 277.796875 718.269531 C 243.496094 718.269531 215.628906 690.402344 215.628906 656.101562 L 215.628906 590.402344 L 490.402344 590.402344 C 545.507812 590.402344 590.402344 545.507812 590.402344 490.402344 L 590.402344 215.628906 L 656.101562 215.628906 C 690.402344 215.628906 718.269531 243.496094 718.269531 277.796875 Z M 718.269531 656.101562 " fill-opacity="1" fill-rule="nonzero"/></g></svg>