<svg xmlns="http://www.w3.org/2000/svg" xmlns:xlink="http://www.w3.org/1999/xlink" width="1024" zoomAndPan="magnify" viewBox="0 0 768 767.999994" height="1024" preserveAspectRatio="xMidYMid meet" version="1.0"><defs><clipPath id="27d18c90ea"><path d="M 311 731 L 706.710938 731 L 706.710938 768 L 311 768 Z M 311 731 " clip-rule="nonzero"/></clipPath></defs><g clip-path="url(#27d18c90ea)"><path fill="#000000" d="M 688.171875 731.203125 L 330.078125 731.203125 C 319.933594 731.203125 311.703125 739.433594 311.703125 749.585938 C 311.703125 759.738281 319.929688 767.972656 330.078125 767.972656 L 688.171875 767.972656 C 698.316406 767.972656 706.546875 759.742188 706.546875 749.585938 C 706.546875 739.4375 698.320312 731.203125 688.171875 731.203125 Z M 688.171875 731.203125 " fill-opacity="1" fill-rule="nonzero"/></g><path fill="#000000" d="M 564.164062 219.371094 C 564.167969 219.371094 564.167969 219.371094 564.164062 219.371094 L 633.089844 120.890625 C 638.910156 112.570312 636.890625 101.113281 628.578125 95.289062 L 498.09375 3.875 C 494.101562 1.078125 489.164062 -0.0195312 484.363281 0.828125 C 479.566406 1.675781 475.296875 4.394531 472.503906 8.390625 L 75.195312 576.089844 C 65.945312 589.304688 61.082031 604.816406 61.125 620.949219 L 61.441406 740.519531 C 61.457031 746.5 64.382812 752.101562 69.273438 755.53125 C 72.40625 757.726562 76.089844 758.859375 79.816406 758.859375 C 81.914062 758.859375 84.023438 758.496094 86.050781 757.765625 L 198.46875 717.164062 C 213.628906 711.691406 226.535156 701.8125 235.785156 688.59375 L 564.164062 219.378906 C 564.164062 219.375 564.164062 219.375 564.164062 219.371094 Z M 492.066406 44.535156 L 592.449219 114.863281 L 544.605469 183.226562 L 444.222656 112.90625 Z M 205.683594 667.503906 C 200.804688 674.476562 193.996094 679.691406 185.988281 682.582031 L 98.117188 714.320312 L 97.875 620.851562 C 97.851562 612.339844 100.417969 604.152344 105.300781 597.179688 L 423.144531 143.019531 L 523.527344 213.34375 Z M 205.683594 667.503906 " fill-opacity="1" fill-rule="nonzero"/></svg>