<svg xmlns="http://www.w3.org/2000/svg" xmlns:xlink="http://www.w3.org/1999/xlink" width="500" zoomAndPan="magnify" viewBox="0 0 375 374.999991" height="500" preserveAspectRatio="xMidYMid meet" version="1.0"><defs><g/><clipPath id="7a78132d61"><path d="M 96 92 L 250 92 L 250 247.957031 L 96 247.957031 Z M 96 92 " clip-rule="nonzero"/></clipPath><clipPath id="bc580c595a"><path d="M 105 216 L 157 216 L 157 247.957031 L 105 247.957031 Z M 105 216 " clip-rule="nonzero"/></clipPath><clipPath id="4625d34b3f"><path d="M 200 212 L 215 212 L 215 247.957031 L 200 247.957031 Z M 200 212 " clip-rule="nonzero"/></clipPath><clipPath id="e362db7b2f"><path d="M 219 150 L 250 150 L 250 247.957031 L 219 247.957031 Z M 219 150 " clip-rule="nonzero"/></clipPath></defs><g fill="#cccccc" fill-opacity="1"><g transform="translate(0.0000045, 287.147031)"><g><path d="M 1.484375 0 L 1.484375 -22.984375 L 11.40625 -22.984375 C 13.101562 -22.984375 14.59375 -22.671875 15.875 -22.046875 C 17.15625 -21.421875 18.148438 -20.523438 18.859375 -19.359375 C 19.566406 -18.191406 19.921875 -16.796875 19.921875 -15.171875 C 19.921875 -13.523438 19.554688 -12.132812 18.828125 -11 C 18.097656 -9.875 17.078125 -9.019531 15.765625 -8.4375 C 14.453125 -7.863281 12.921875 -7.578125 11.171875 -7.578125 L 5.25 -7.578125 L 5.25 -12.4375 L 9.921875 -12.4375 C 10.648438 -12.4375 11.273438 -12.523438 11.796875 -12.703125 C 12.316406 -12.890625 12.71875 -13.179688 13 -13.578125 C 13.28125 -13.984375 13.421875 -14.515625 13.421875 -15.171875 C 13.421875 -15.828125 13.28125 -16.363281 13 -16.78125 C 12.71875 -17.195312 12.316406 -17.503906 11.796875 -17.703125 C 11.273438 -17.898438 10.648438 -18 9.921875 -18 L 7.71875 -18 L 7.71875 0 Z M 14.9375 -10.546875 L 20.6875 0 L 13.90625 0 L 8.296875 -10.546875 Z M 14.9375 -10.546875 "/></g></g></g><g fill="#cccccc" fill-opacity="1"><g transform="translate(24.252331, 287.147031)"><g><path d="M 1.484375 0 L 1.484375 -22.984375 L 18.046875 -22.984375 L 18.046875 -17.953125 L 7.71875 -17.953125 L 7.71875 -14 L 17.1875 -14 L 17.1875 -8.96875 L 7.71875 -8.96875 L 7.71875 -5.03125 L 18 -5.03125 L 18 0 Z M 1.484375 0 "/></g></g></g><g fill="#cccccc" fill-opacity="1"><g transform="translate(47.068584, 287.147031)"><g><path d="M 1.484375 0 L 1.484375 -22.984375 L 11.40625 -22.984375 C 13.101562 -22.984375 14.59375 -22.644531 15.875 -21.96875 C 17.15625 -21.289062 18.148438 -20.34375 18.859375 -19.125 C 19.566406 -17.90625 19.921875 -16.484375 19.921875 -14.859375 C 19.921875 -13.210938 19.554688 -11.785156 18.828125 -10.578125 C 18.097656 -9.378906 17.078125 -8.453125 15.765625 -7.796875 C 14.453125 -7.148438 12.921875 -6.828125 11.171875 -6.828125 L 5.25 -6.828125 L 5.25 -11.671875 L 9.921875 -11.671875 C 10.648438 -11.671875 11.273438 -11.796875 11.796875 -12.046875 C 12.316406 -12.304688 12.71875 -12.675781 13 -13.15625 C 13.28125 -13.632812 13.421875 -14.203125 13.421875 -14.859375 C 13.421875 -15.515625 13.28125 -16.078125 13 -16.546875 C 12.71875 -17.015625 12.316406 -17.375 11.796875 -17.625 C 11.273438 -17.875 10.648438 -18 9.921875 -18 L 7.71875 -18 L 7.71875 0 Z M 1.484375 0 "/></g></g></g><g fill="#cccccc" fill-opacity="1"><g transform="translate(70.961884, 287.147031)"><g><path d="M 23.734375 -11.484375 C 23.734375 -8.929688 23.234375 -6.773438 22.234375 -5.015625 C 21.242188 -3.265625 19.90625 -1.9375 18.21875 -1.03125 C 16.53125 -0.132812 14.644531 0.3125 12.5625 0.3125 C 10.46875 0.3125 8.578125 -0.140625 6.890625 -1.046875 C 5.203125 -1.953125 3.863281 -3.28125 2.875 -5.03125 C 1.882812 -6.789062 1.390625 -8.941406 1.390625 -11.484375 C 1.390625 -14.046875 1.882812 -16.203125 2.875 -17.953125 C 3.863281 -19.710938 5.203125 -21.039062 6.890625 -21.9375 C 8.578125 -22.84375 10.46875 -23.296875 12.5625 -23.296875 C 14.644531 -23.296875 16.53125 -22.84375 18.21875 -21.9375 C 19.90625 -21.039062 21.242188 -19.710938 22.234375 -17.953125 C 23.234375 -16.203125 23.734375 -14.046875 23.734375 -11.484375 Z M 17.328125 -11.484375 C 17.328125 -12.859375 17.144531 -14.019531 16.78125 -14.96875 C 16.414062 -15.914062 15.878906 -16.632812 15.171875 -17.125 C 14.460938 -17.613281 13.59375 -17.859375 12.5625 -17.859375 C 11.53125 -17.859375 10.660156 -17.613281 9.953125 -17.125 C 9.242188 -16.632812 8.707031 -15.914062 8.34375 -14.96875 C 7.988281 -14.019531 7.8125 -12.859375 7.8125 -11.484375 C 7.8125 -10.109375 7.988281 -8.945312 8.34375 -8 C 8.707031 -7.050781 9.242188 -6.332031 9.953125 -5.84375 C 10.660156 -5.351562 11.53125 -5.109375 12.5625 -5.109375 C 13.59375 -5.109375 14.460938 -5.351562 15.171875 -5.84375 C 15.878906 -6.332031 16.414062 -7.050781 16.78125 -8 C 17.144531 -8.945312 17.328125 -10.109375 17.328125 -11.484375 Z M 17.328125 -11.484375 "/></g></g></g><g fill="#cccccc" fill-opacity="1"><g transform="translate(99.253164, 287.147031)"><g><path d="M 1.484375 0 L 1.484375 -22.984375 L 11.40625 -22.984375 C 13.101562 -22.984375 14.59375 -22.671875 15.875 -22.046875 C 17.15625 -21.421875 18.148438 -20.523438 18.859375 -19.359375 C 19.566406 -18.191406 19.921875 -16.796875 19.921875 -15.171875 C 19.921875 -13.523438 19.554688 -12.132812 18.828125 -11 C 18.097656 -9.875 17.078125 -9.019531 15.765625 -8.4375 C 14.453125 -7.863281 12.921875 -7.578125 11.171875 -7.578125 L 5.25 -7.578125 L 5.25 -12.4375 L 9.921875 -12.4375 C 10.648438 -12.4375 11.273438 -12.523438 11.796875 -12.703125 C 12.316406 -12.890625 12.71875 -13.179688 13 -13.578125 C 13.28125 -13.984375 13.421875 -14.515625 13.421875 -15.171875 C 13.421875 -15.828125 13.28125 -16.363281 13 -16.78125 C 12.71875 -17.195312 12.316406 -17.503906 11.796875 -17.703125 C 11.273438 -17.898438 10.648438 -18 9.921875 -18 L 7.71875 -18 L 7.71875 0 Z M 14.9375 -10.546875 L 20.6875 0 L 13.90625 0 L 8.296875 -10.546875 Z M 14.9375 -10.546875 "/></g></g></g><g fill="#cccccc" fill-opacity="1"><g transform="translate(123.505493, 287.147031)"><g><path d="M 0.859375 -17.953125 L 0.859375 -22.984375 L 20.828125 -22.984375 L 20.828125 -17.953125 L 13.90625 -17.953125 L 13.90625 0 L 7.765625 0 L 7.765625 -17.953125 Z M 0.859375 -17.953125 "/></g></g></g><g fill="#cccccc" fill-opacity="1"><g transform="translate(148.34122, 287.147031)"><g/></g></g><g fill="#cccccc" fill-opacity="1"><g transform="translate(157.784037, 287.147031)"><g><path d="M 21.359375 -22.984375 L 21.359375 0 L 16.15625 0 L 7.859375 -12.078125 L 7.71875 -12.078125 L 7.71875 0 L 1.484375 0 L 1.484375 -22.984375 L 6.78125 -22.984375 L 14.9375 -10.953125 L 15.125 -10.953125 L 15.125 -22.984375 Z M 21.359375 -22.984375 "/></g></g></g><g fill="#cccccc" fill-opacity="1"><g transform="translate(183.786579, 287.147031)"><g><path d="M 23.734375 -11.484375 C 23.734375 -8.929688 23.234375 -6.773438 22.234375 -5.015625 C 21.242188 -3.265625 19.90625 -1.9375 18.21875 -1.03125 C 16.53125 -0.132812 14.644531 0.3125 12.5625 0.3125 C 10.46875 0.3125 8.578125 -0.140625 6.890625 -1.046875 C 5.203125 -1.953125 3.863281 -3.28125 2.875 -5.03125 C 1.882812 -6.789062 1.390625 -8.941406 1.390625 -11.484375 C 1.390625 -14.046875 1.882812 -16.203125 2.875 -17.953125 C 3.863281 -19.710938 5.203125 -21.039062 6.890625 -21.9375 C 8.578125 -22.84375 10.46875 -23.296875 12.5625 -23.296875 C 14.644531 -23.296875 16.53125 -22.84375 18.21875 -21.9375 C 19.90625 -21.039062 21.242188 -19.710938 22.234375 -17.953125 C 23.234375 -16.203125 23.734375 -14.046875 23.734375 -11.484375 Z M 17.328125 -11.484375 C 17.328125 -12.859375 17.144531 -14.019531 16.78125 -14.96875 C 16.414062 -15.914062 15.878906 -16.632812 15.171875 -17.125 C 14.460938 -17.613281 13.59375 -17.859375 12.5625 -17.859375 C 11.53125 -17.859375 10.660156 -17.613281 9.953125 -17.125 C 9.242188 -16.632812 8.707031 -15.914062 8.34375 -14.96875 C 7.988281 -14.019531 7.8125 -12.859375 7.8125 -11.484375 C 7.8125 -10.109375 7.988281 -8.945312 8.34375 -8 C 8.707031 -7.050781 9.242188 -6.332031 9.953125 -5.84375 C 10.660156 -5.351562 11.53125 -5.109375 12.5625 -5.109375 C 13.59375 -5.109375 14.460938 -5.351562 15.171875 -5.84375 C 15.878906 -6.332031 16.414062 -7.050781 16.78125 -8 C 17.144531 -8.945312 17.328125 -10.109375 17.328125 -11.484375 Z M 17.328125 -11.484375 "/></g></g></g><g fill="#cccccc" fill-opacity="1"><g transform="translate(212.077849, 287.147031)"><g><path d="M 0.859375 -17.953125 L 0.859375 -22.984375 L 20.828125 -22.984375 L 20.828125 -17.953125 L 13.90625 -17.953125 L 13.90625 0 L 7.765625 0 L 7.765625 -17.953125 Z M 0.859375 -17.953125 "/></g></g></g><g fill="#cccccc" fill-opacity="1"><g transform="translate(236.913563, 287.147031)"><g/></g></g><g fill="#cccccc" fill-opacity="1"><g transform="translate(246.35638, 287.147031)"><g><path d="M 1.484375 0 L 1.484375 -22.984375 L 17.640625 -22.984375 L 17.640625 -17.953125 L 7.71875 -17.953125 L 7.71875 -14 L 16.65625 -14 L 16.65625 -8.96875 L 7.71875 -8.96875 L 7.71875 0 Z M 1.484375 0 "/></g></g></g><g fill="#cccccc" fill-opacity="1"><g transform="translate(267.960947, 287.147031)"><g><path d="M 23.734375 -11.484375 C 23.734375 -8.929688 23.234375 -6.773438 22.234375 -5.015625 C 21.242188 -3.265625 19.90625 -1.9375 18.21875 -1.03125 C 16.53125 -0.132812 14.644531 0.3125 12.5625 0.3125 C 10.46875 0.3125 8.578125 -0.140625 6.890625 -1.046875 C 5.203125 -1.953125 3.863281 -3.28125 2.875 -5.03125 C 1.882812 -6.789062 1.390625 -8.941406 1.390625 -11.484375 C 1.390625 -14.046875 1.882812 -16.203125 2.875 -17.953125 C 3.863281 -19.710938 5.203125 -21.039062 6.890625 -21.9375 C 8.578125 -22.84375 10.46875 -23.296875 12.5625 -23.296875 C 14.644531 -23.296875 16.53125 -22.84375 18.21875 -21.9375 C 19.90625 -21.039062 21.242188 -19.710938 22.234375 -17.953125 C 23.234375 -16.203125 23.734375 -14.046875 23.734375 -11.484375 Z M 17.328125 -11.484375 C 17.328125 -12.859375 17.144531 -14.019531 16.78125 -14.96875 C 16.414062 -15.914062 15.878906 -16.632812 15.171875 -17.125 C 14.460938 -17.613281 13.59375 -17.859375 12.5625 -17.859375 C 11.53125 -17.859375 10.660156 -17.613281 9.953125 -17.125 C 9.242188 -16.632812 8.707031 -15.914062 8.34375 -14.96875 C 7.988281 -14.019531 7.8125 -12.859375 7.8125 -11.484375 C 7.8125 -10.109375 7.988281 -8.945312 8.34375 -8 C 8.707031 -7.050781 9.242188 -6.332031 9.953125 -5.84375 C 10.660156 -5.351562 11.53125 -5.109375 12.5625 -5.109375 C 13.59375 -5.109375 14.460938 -5.351562 15.171875 -5.84375 C 15.878906 -6.332031 16.414062 -7.050781 16.78125 -8 C 17.144531 -8.945312 17.328125 -10.109375 17.328125 -11.484375 Z M 17.328125 -11.484375 "/></g></g></g><g fill="#cccccc" fill-opacity="1"><g transform="translate(296.252228, 287.147031)"><g><path d="M 15.078125 -22.984375 L 21.3125 -22.984375 L 21.3125 -8.25 C 21.3125 -6.5 20.894531 -4.988281 20.0625 -3.71875 C 19.226562 -2.445312 18.066406 -1.460938 16.578125 -0.765625 C 15.085938 -0.078125 13.363281 0.265625 11.40625 0.265625 C 9.414062 0.265625 7.675781 -0.078125 6.1875 -0.765625 C 4.695312 -1.460938 3.539062 -2.445312 2.71875 -3.71875 C 1.894531 -4.988281 1.484375 -6.5 1.484375 -8.25 L 1.484375 -22.984375 L 7.71875 -22.984375 L 7.71875 -8.796875 C 7.71875 -8.085938 7.875 -7.453125 8.1875 -6.890625 C 8.5 -6.335938 8.929688 -5.898438 9.484375 -5.578125 C 10.046875 -5.265625 10.6875 -5.109375 11.40625 -5.109375 C 12.113281 -5.109375 12.742188 -5.265625 13.296875 -5.578125 C 13.859375 -5.898438 14.296875 -6.335938 14.609375 -6.890625 C 14.921875 -7.453125 15.078125 -8.085938 15.078125 -8.796875 Z M 15.078125 -22.984375 "/></g></g></g><g fill="#cccccc" fill-opacity="1"><g transform="translate(322.209875, 287.147031)"><g><path d="M 21.359375 -22.984375 L 21.359375 0 L 16.15625 0 L 7.859375 -12.078125 L 7.71875 -12.078125 L 7.71875 0 L 1.484375 0 L 1.484375 -22.984375 L 6.78125 -22.984375 L 14.9375 -10.953125 L 15.125 -10.953125 L 15.125 -22.984375 Z M 21.359375 -22.984375 "/></g></g></g><g fill="#cccccc" fill-opacity="1"><g transform="translate(348.212407, 287.147031)"><g><path d="M 10.328125 0 L 1.484375 0 L 1.484375 -22.984375 L 10.234375 -22.984375 C 12.597656 -22.984375 14.640625 -22.523438 16.359375 -21.609375 C 18.085938 -20.691406 19.421875 -19.375 20.359375 -17.65625 C 21.296875 -15.9375 21.765625 -13.878906 21.765625 -11.484375 C 21.765625 -9.085938 21.296875 -7.03125 20.359375 -5.3125 C 19.421875 -3.601562 18.097656 -2.289062 16.390625 -1.375 C 14.679688 -0.457031 12.660156 0 10.328125 0 Z M 7.71875 -5.296875 L 10.09375 -5.296875 C 11.226562 -5.296875 12.195312 -5.476562 13 -5.84375 C 13.8125 -6.207031 14.425781 -6.835938 14.84375 -7.734375 C 15.269531 -8.640625 15.484375 -9.890625 15.484375 -11.484375 C 15.484375 -13.085938 15.265625 -14.335938 14.828125 -15.234375 C 14.398438 -16.128906 13.773438 -16.757812 12.953125 -17.125 C 12.128906 -17.5 11.117188 -17.6875 9.921875 -17.6875 L 7.71875 -17.6875 Z M 7.71875 -5.296875 "/></g></g></g><g clip-path="url(#7a78132d61)"><path fill="#6d513e" d="M 230.632812 163.140625 C 229.890625 162.300781 229.390625 161.261719 229.265625 160.148438 C 229.015625 158.121094 228.289062 156.304688 227.136719 154.652344 C 226.25 153.402344 226.046875 151.8125 226.410156 150.320312 C 227.25 146.878906 227.402344 143.007812 227.226562 138.714844 C 228.476562 139.328125 229.492188 139.828125 230.117188 140.128906 C 230.554688 140.34375 231.03125 140.429688 231.519531 140.394531 L 237.292969 139.929688 C 239.371094 139.765625 240.445312 137.414062 239.257812 135.710938 C 237.890625 133.746094 236.378906 131.054688 235.324219 127.785156 C 231.207031 114.914062 229.640625 95.285156 202.722656 92.917969 C 166.667969 89.75 163.4375 124.355469 157.503906 131.765625 C 154.648438 135.324219 151.582031 137.289062 149.152344 138.363281 C 147.5625 139.066406 147.460938 141.269531 148.976562 142.121094 L 153.359375 144.613281 C 153.820312 144.875 154.371094 144.949219 154.898438 144.824219 L 167.480469 141.808594 C 166.816406 147.230469 168.144531 151.371094 172.039062 153.851562 C 170.199219 154.953125 168.40625 156.105469 166.667969 157.308594 C 166.667969 157.308594 176.660156 165.945312 177.320312 172.917969 C 177.972656 179.679688 170.511719 195.253906 170.058594 196.195312 C 170.046875 196.21875 170.035156 196.230469 170.035156 196.230469 C 164.339844 203.265625 151.742188 241.300781 151.742188 241.300781 L 134.605469 218.214844 C 133.390625 216.601562 131.335938 215.863281 129.382812 216.375 C 128.734375 216.539062 128.007812 216.738281 127.230469 216.953125 C 127.230469 216.953125 127.519531 214.171875 126.441406 211.394531 C 125.378906 208.601562 116.6875 203.542969 116.6875 203.542969 L 114.859375 196.695312 C 117.425781 193.1875 117.578125 185.601562 114.910156 177.640625 C 111.566406 167.671875 105.070312 160.875 100.386719 162.441406 C 95.71875 164.003906 94.628906 173.359375 97.972656 183.324219 C 100.238281 190.082031 103.96875 195.390625 107.585938 197.609375 L 109.414062 203.804688 L 109.390625 203.867188 C 107.574219 203.09375 105.695312 202.253906 103.804688 202.628906 C 100.085938 203.355469 99.324219 207.085938 99.699219 209.488281 C 99.886719 210.753906 101.289062 212.582031 102.527344 213.984375 C 103.503906 215.097656 103.832031 216.6875 103.265625 218.066406 C 102.890625 218.992188 102.578125 220.195312 102.589844 221.597656 C 102.628906 224.964844 107.914062 229.757812 107.914062 229.757812 C 106.960938 232.574219 106.246094 235.707031 105.769531 238.070312 C 105.308594 240.4375 105.832031 242.878906 107.25 244.832031 L 109.515625 247.960938 L 249.046875 247.960938 C 252.039062 212.207031 247.695312 182.445312 230.632812 163.140625 Z M 230.632812 163.140625 " fill-opacity="1" fill-rule="nonzero"/></g><path fill="#655f68" d="M 218.535156 134.421875 C 221.453125 135.875 224.785156 137.511719 227.226562 138.714844 C 216.722656 139.140625 207.03125 140.554688 198.09375 142.960938 L 198.09375 142.945312 C 198.917969 139.929688 198.09375 137.300781 195.636719 135.046875 L 204.714844 132.867188 C 209.359375 131.753906 214.253906 132.304688 218.535156 134.421875 Z M 218.535156 134.421875 " fill-opacity="1" fill-rule="nonzero"/><path fill="#e7f2f1" d="M 109.851562 179.328125 C 112.15625 186.203125 112.882812 192.164062 111.480469 192.636719 C 110.066406 193.113281 107.046875 187.917969 104.746094 181.042969 C 102.441406 174.171875 101.714844 168.222656 103.128906 167.75 C 104.53125 167.273438 107.550781 172.457031 109.851562 179.328125 Z M 109.851562 179.328125 " fill-opacity="1" fill-rule="nonzero"/><path fill="#655f68" d="M 114.859375 196.695312 L 116.6875 203.542969 C 116.6875 203.542969 116.261719 204.082031 114.320312 204.730469 C 112.769531 205.246094 111.105469 204.59375 109.390625 203.867188 L 109.414062 203.804688 L 107.585938 197.609375 C 103.96875 195.390625 100.238281 190.082031 97.972656 183.324219 C 94.628906 173.359375 95.71875 164.003906 100.386719 162.441406 C 105.070312 160.875 111.566406 167.671875 114.910156 177.640625 C 117.578125 185.601562 117.425781 193.1875 114.859375 196.695312 Z M 111.480469 192.636719 C 112.882812 192.164062 112.15625 186.203125 109.851562 179.328125 C 107.550781 172.457031 104.53125 167.273438 103.128906 167.75 C 101.714844 168.222656 102.441406 174.171875 104.746094 181.042969 C 107.046875 187.917969 110.066406 193.113281 111.480469 192.636719 Z M 111.480469 192.636719 " fill-opacity="1" fill-rule="nonzero"/><path fill="#fec4b9" d="M 126.441406 211.394531 C 127.519531 214.171875 127.230469 216.953125 127.230469 216.953125 C 121.546875 218.515625 113.121094 221.234375 110.714844 224.113281 C 109.628906 225.414062 108.6875 227.492188 107.914062 229.757812 C 107.914062 229.757812 102.628906 224.964844 102.589844 221.597656 C 102.578125 220.195312 102.890625 218.992188 103.265625 218.066406 C 103.832031 216.6875 103.503906 215.097656 102.527344 213.984375 C 101.289062 212.582031 99.886719 210.753906 99.699219 209.488281 C 99.324219 207.085938 100.085938 203.355469 103.804688 202.628906 C 105.695312 202.253906 107.574219 203.09375 109.390625 203.867188 C 111.105469 204.59375 112.769531 205.246094 114.320312 204.730469 C 116.261719 204.082031 116.6875 203.542969 116.6875 203.542969 C 116.6875 203.542969 125.378906 208.601562 126.441406 211.394531 Z M 126.441406 211.394531 " fill-opacity="1" fill-rule="nonzero"/><path fill="#fec4b9" d="M 195.636719 135.046875 C 198.09375 137.300781 198.917969 139.929688 198.09375 142.945312 L 198.09375 142.960938 C 188.578125 145.5 179.914062 149.144531 172.039062 153.851562 C 168.144531 151.371094 166.816406 147.230469 167.480469 141.808594 Z M 195.636719 135.046875 " fill-opacity="1" fill-rule="nonzero"/><g clip-path="url(#bc580c595a)"><path fill="#7f5d46" d="M 151.742188 241.300781 L 156.6875 247.960938 L 109.515625 247.960938 L 107.25 244.832031 C 105.832031 242.878906 105.308594 240.4375 105.769531 238.070312 C 106.246094 235.707031 106.960938 232.574219 107.914062 229.757812 C 108.6875 227.492188 109.628906 225.414062 110.714844 224.113281 C 113.121094 221.234375 121.546875 218.515625 127.230469 216.953125 C 128.007812 216.738281 128.734375 216.539062 129.382812 216.375 C 131.335938 215.863281 133.390625 216.601562 134.605469 218.214844 Z M 151.742188 241.300781 " fill-opacity="1" fill-rule="nonzero"/></g><path fill="#634a39" d="M 202.722656 92.917969 C 229.640625 95.285156 231.207031 114.914062 235.324219 127.785156 C 236.378906 131.054688 237.890625 133.746094 239.257812 135.710938 C 240.445312 137.414062 239.371094 139.765625 237.292969 139.929688 L 231.519531 140.394531 C 231.03125 140.429688 230.554688 140.34375 230.117188 140.128906 C 222.867188 97.035156 193.824219 92.929688 193.824219 92.929688 C 196.550781 92.65625 199.507812 92.628906 202.722656 92.917969 Z M 202.722656 92.917969 " fill-opacity="1" fill-rule="nonzero"/><g clip-path="url(#4625d34b3f)"><path fill="#634a39" d="M 212.765625 212.34375 C 212.765625 212.34375 218.75 233.214844 207.621094 247.960938 L 200.871094 247.960938 C 208.28125 237.445312 212.253906 225.578125 212.765625 212.34375 Z M 212.765625 212.34375 " fill-opacity="1" fill-rule="nonzero"/></g><g clip-path="url(#e362db7b2f)"><path fill="#634a39" d="M 230.632812 163.140625 C 247.695312 182.445312 252.039062 212.207031 249.046875 247.960938 L 234.449219 247.960938 C 248.859375 200.335938 219.023438 159.625 219.023438 159.625 C 222.441406 157.082031 224.871094 153.953125 226.410156 150.320312 C 226.046875 151.8125 226.25 153.402344 227.136719 154.652344 C 228.289062 156.304688 229.015625 158.121094 229.265625 160.148438 C 229.390625 161.261719 229.890625 162.300781 230.632812 163.140625 Z M 230.632812 163.140625 " fill-opacity="1" fill-rule="nonzero"/></g><path fill="#634a39" d="M 188.214844 181.996094 C 190.78125 180.480469 192.992188 179.5625 194.617188 179.382812 C 200.683594 178.734375 206.148438 182.371094 206.203125 182.40625 C 206.777344 182.792969 207.554688 182.640625 207.941406 182.066406 C 208.328125 181.496094 208.179688 180.71875 207.605469 180.332031 C 207.355469 180.160156 201.332031 176.152344 194.351562 176.894531 C 191.480469 177.210938 187.6875 179.054688 183.070312 182.382812 C 180.605469 184.171875 177.996094 186.332031 175.519531 188.636719 C 175.015625 189.105469 174.988281 189.898438 175.457031 190.40625 C 175.707031 190.667969 176.039062 190.804688 176.375 190.804688 C 176.679688 190.804688 176.988281 190.691406 177.230469 190.46875 C 179.539062 188.316406 181.960938 186.304688 184.265625 184.617188 C 196.671875 183.457031 205.636719 189.308594 211.625 202.492188 C 211.835938 202.953125 212.289062 203.226562 212.765625 203.226562 C 212.941406 203.226562 213.117188 203.191406 213.285156 203.113281 C 213.914062 202.828125 214.191406 202.085938 213.90625 201.457031 C 208.191406 188.882812 199.554688 182.367188 188.214844 181.996094 Z M 188.214844 181.996094 " fill-opacity="1" fill-rule="nonzero"/><path fill="#634a39" d="M 220.589844 148.125 C 220.003906 147.753906 219.234375 147.925781 218.859375 148.507812 C 216.328125 152.472656 212.445312 155.363281 206.992188 157.34375 C 206.34375 157.582031 206.007812 158.300781 206.242188 158.949219 C 206.429688 159.457031 206.910156 159.773438 207.421875 159.773438 C 207.5625 159.773438 207.707031 159.75 207.847656 159.699219 C 213.839844 157.519531 218.128906 154.300781 220.972656 149.855469 C 221.339844 149.273438 221.171875 148.5 220.589844 148.125 Z M 220.589844 148.125 " fill-opacity="1" fill-rule="nonzero"/></svg>