<svg xmlns="http://www.w3.org/2000/svg" xmlns:xlink="http://www.w3.org/1999/xlink" width="500" zoomAndPan="magnify" viewBox="0 0 375 374.999991" height="500" preserveAspectRatio="xMidYMid meet" version="1.0"><defs><g/><clipPath id="8ec5d2b0c8"><path d="M 96 92 L 250 92 L 250 247.957031 L 96 247.957031 Z M 96 92 " clip-rule="nonzero"/></clipPath><clipPath id="aba84a9ce3"><path d="M 105 216 L 157 216 L 157 247.957031 L 105 247.957031 Z M 105 216 " clip-rule="nonzero"/></clipPath><clipPath id="d456bfb499"><path d="M 200 212 L 215 212 L 215 247.957031 L 200 247.957031 Z M 200 212 " clip-rule="nonzero"/></clipPath><clipPath id="a4b13f0ed7"><path d="M 219 150 L 250 150 L 250 247.957031 L 219 247.957031 Z M 219 150 " clip-rule="nonzero"/></clipPath></defs><g fill="#cccccc" fill-opacity="1"><g transform="translate(0.0000045, 288.507022)"><g><path d="M 22.3125 -24 L 22.3125 0 L 16.875 0 L 8.203125 -12.609375 L 8.0625 -12.609375 L 8.0625 0 L 1.546875 0 L 1.546875 -24 L 7.078125 -24 L 15.609375 -11.4375 L 15.796875 -11.4375 L 15.796875 -24 Z M 22.3125 -24 "/></g></g></g><g fill="#cccccc" fill-opacity="1"><g transform="translate(27.159379, 288.507022)"><g><path d="M 24.796875 -12 C 24.796875 -9.332031 24.273438 -7.082031 23.234375 -5.25 C 22.203125 -3.414062 20.800781 -2.023438 19.03125 -1.078125 C 17.269531 -0.140625 15.300781 0.328125 13.125 0.328125 C 10.9375 0.328125 8.960938 -0.144531 7.203125 -1.09375 C 5.441406 -2.039062 4.039062 -3.429688 3 -5.265625 C 1.96875 -7.097656 1.453125 -9.34375 1.453125 -12 C 1.453125 -14.675781 1.96875 -16.925781 3 -18.75 C 4.039062 -20.582031 5.441406 -21.96875 7.203125 -22.90625 C 8.960938 -23.851562 10.9375 -24.328125 13.125 -24.328125 C 15.300781 -24.328125 17.269531 -23.851562 19.03125 -22.90625 C 20.800781 -21.96875 22.203125 -20.582031 23.234375 -18.75 C 24.273438 -16.925781 24.796875 -14.675781 24.796875 -12 Z M 18.09375 -12 C 18.09375 -13.4375 17.898438 -14.648438 17.515625 -15.640625 C 17.140625 -16.628906 16.582031 -17.378906 15.84375 -17.890625 C 15.113281 -18.398438 14.207031 -18.65625 13.125 -18.65625 C 12.050781 -18.65625 11.144531 -18.398438 10.40625 -17.890625 C 9.664062 -17.378906 9.101562 -16.628906 8.71875 -15.640625 C 8.34375 -14.648438 8.15625 -13.4375 8.15625 -12 C 8.15625 -10.5625 8.34375 -9.347656 8.71875 -8.359375 C 9.101562 -7.367188 9.664062 -6.617188 10.40625 -6.109375 C 11.144531 -5.597656 12.050781 -5.34375 13.125 -5.34375 C 14.207031 -5.34375 15.113281 -5.597656 15.84375 -6.109375 C 16.582031 -6.617188 17.140625 -7.367188 17.515625 -8.359375 C 17.898438 -9.347656 18.09375 -10.5625 18.09375 -12 Z M 18.09375 -12 "/></g></g></g><g fill="#cccccc" fill-opacity="1"><g transform="translate(56.709379, 288.507022)"><g><path d="M 10.78125 0 L 1.546875 0 L 1.546875 -24 L 10.6875 -24 C 13.15625 -24 15.289062 -23.519531 17.09375 -22.5625 C 18.894531 -21.601562 20.285156 -20.226562 21.265625 -18.4375 C 22.242188 -16.644531 22.734375 -14.5 22.734375 -12 C 22.734375 -9.5 22.242188 -7.351562 21.265625 -5.5625 C 20.296875 -3.769531 18.914062 -2.394531 17.125 -1.4375 C 15.332031 -0.476562 13.21875 0 10.78125 0 Z M 8.0625 -5.53125 L 10.546875 -5.53125 C 11.734375 -5.53125 12.742188 -5.722656 13.578125 -6.109375 C 14.421875 -6.492188 15.0625 -7.15625 15.5 -8.09375 C 15.945312 -9.03125 16.171875 -10.332031 16.171875 -12 C 16.171875 -13.675781 15.945312 -14.984375 15.5 -15.921875 C 15.050781 -16.859375 14.394531 -17.515625 13.53125 -17.890625 C 12.664062 -18.273438 11.609375 -18.46875 10.359375 -18.46875 L 8.0625 -18.46875 Z M 8.0625 -5.53125 "/></g></g></g><g fill="#cccccc" fill-opacity="1"><g transform="translate(84.196878, 288.507022)"><g><path d="M 1.546875 0 L 1.546875 -24 L 18.84375 -24 L 18.84375 -18.75 L 8.0625 -18.75 L 8.0625 -14.625 L 17.953125 -14.625 L 17.953125 -9.375 L 8.0625 -9.375 L 8.0625 -5.25 L 18.796875 -5.25 L 18.796875 0 Z M 1.546875 0 "/></g></g></g><g fill="#cccccc" fill-opacity="1"><g transform="translate(108.028128, 288.507022)"><g><path d="M 14.484375 -16.5 C 14.421875 -17.28125 14.128906 -17.890625 13.609375 -18.328125 C 13.085938 -18.765625 12.300781 -18.984375 11.25 -18.984375 C 10.582031 -18.984375 10.035156 -18.898438 9.609375 -18.734375 C 9.179688 -18.578125 8.863281 -18.363281 8.65625 -18.09375 C 8.457031 -17.820312 8.351562 -17.507812 8.34375 -17.15625 C 8.332031 -16.863281 8.382812 -16.601562 8.5 -16.375 C 8.625 -16.144531 8.816406 -15.9375 9.078125 -15.75 C 9.347656 -15.570312 9.6875 -15.40625 10.09375 -15.25 C 10.507812 -15.101562 11.003906 -14.972656 11.578125 -14.859375 L 13.546875 -14.4375 C 14.878906 -14.15625 16.015625 -13.785156 16.953125 -13.328125 C 17.898438 -12.867188 18.675781 -12.328125 19.28125 -11.703125 C 19.882812 -11.078125 20.328125 -10.378906 20.609375 -9.609375 C 20.890625 -8.835938 21.035156 -7.992188 21.046875 -7.078125 C 21.035156 -5.503906 20.640625 -4.171875 19.859375 -3.078125 C 19.078125 -1.984375 17.960938 -1.148438 16.515625 -0.578125 C 15.066406 -0.00390625 13.328125 0.28125 11.296875 0.28125 C 9.210938 0.28125 7.394531 -0.0234375 5.84375 -0.640625 C 4.289062 -1.265625 3.085938 -2.21875 2.234375 -3.5 C 1.378906 -4.78125 0.945312 -6.425781 0.9375 -8.4375 L 7.125 -8.4375 C 7.164062 -7.707031 7.347656 -7.09375 7.671875 -6.59375 C 8.003906 -6.09375 8.46875 -5.710938 9.0625 -5.453125 C 9.664062 -5.191406 10.378906 -5.0625 11.203125 -5.0625 C 11.898438 -5.0625 12.484375 -5.144531 12.953125 -5.3125 C 13.421875 -5.488281 13.773438 -5.726562 14.015625 -6.03125 C 14.253906 -6.34375 14.378906 -6.691406 14.390625 -7.078125 C 14.378906 -7.441406 14.257812 -7.765625 14.03125 -8.046875 C 13.800781 -8.328125 13.425781 -8.578125 12.90625 -8.796875 C 12.382812 -9.015625 11.675781 -9.222656 10.78125 -9.421875 L 8.390625 -9.9375 C 6.265625 -10.394531 4.585938 -11.164062 3.359375 -12.25 C 2.140625 -13.332031 1.535156 -14.8125 1.546875 -16.6875 C 1.535156 -18.207031 1.941406 -19.539062 2.765625 -20.6875 C 3.597656 -21.832031 4.742188 -22.722656 6.203125 -23.359375 C 7.671875 -24.003906 9.351562 -24.328125 11.25 -24.328125 C 13.1875 -24.328125 14.863281 -24.003906 16.28125 -23.359375 C 17.695312 -22.710938 18.785156 -21.800781 19.546875 -20.625 C 20.316406 -19.445312 20.707031 -18.070312 20.71875 -16.5 Z M 14.484375 -16.5 "/></g></g></g><g fill="#cccccc" fill-opacity="1"><g transform="translate(133.312497, 288.507022)"><g/></g></g><g fill="#cccccc" fill-opacity="1"><g transform="translate(143.174992, 288.507022)"><g><path d="M 22.3125 -24 L 22.3125 0 L 16.875 0 L 8.203125 -12.609375 L 8.0625 -12.609375 L 8.0625 0 L 1.546875 0 L 1.546875 -24 L 7.078125 -24 L 15.609375 -11.4375 L 15.796875 -11.4375 L 15.796875 -24 Z M 22.3125 -24 "/></g></g></g><g fill="#cccccc" fill-opacity="1"><g transform="translate(170.334361, 288.507022)"><g><path d="M 24.796875 -12 C 24.796875 -9.332031 24.273438 -7.082031 23.234375 -5.25 C 22.203125 -3.414062 20.800781 -2.023438 19.03125 -1.078125 C 17.269531 -0.140625 15.300781 0.328125 13.125 0.328125 C 10.9375 0.328125 8.960938 -0.144531 7.203125 -1.09375 C 5.441406 -2.039062 4.039062 -3.429688 3 -5.265625 C 1.96875 -7.097656 1.453125 -9.34375 1.453125 -12 C 1.453125 -14.675781 1.96875 -16.925781 3 -18.75 C 4.039062 -20.582031 5.441406 -21.96875 7.203125 -22.90625 C 8.960938 -23.851562 10.9375 -24.328125 13.125 -24.328125 C 15.300781 -24.328125 17.269531 -23.851562 19.03125 -22.90625 C 20.800781 -21.96875 22.203125 -20.582031 23.234375 -18.75 C 24.273438 -16.925781 24.796875 -14.675781 24.796875 -12 Z M 18.09375 -12 C 18.09375 -13.4375 17.898438 -14.648438 17.515625 -15.640625 C 17.140625 -16.628906 16.582031 -17.378906 15.84375 -17.890625 C 15.113281 -18.398438 14.207031 -18.65625 13.125 -18.65625 C 12.050781 -18.65625 11.144531 -18.398438 10.40625 -17.890625 C 9.664062 -17.378906 9.101562 -16.628906 8.71875 -15.640625 C 8.34375 -14.648438 8.15625 -13.4375 8.15625 -12 C 8.15625 -10.5625 8.34375 -9.347656 8.71875 -8.359375 C 9.101562 -7.367188 9.664062 -6.617188 10.40625 -6.109375 C 11.144531 -5.597656 12.050781 -5.34375 13.125 -5.34375 C 14.207031 -5.34375 15.113281 -5.597656 15.84375 -6.109375 C 16.582031 -6.617188 17.140625 -7.367188 17.515625 -8.359375 C 17.898438 -9.347656 18.09375 -10.5625 18.09375 -12 Z M 18.09375 -12 "/></g></g></g><g fill="#cccccc" fill-opacity="1"><g transform="translate(199.884354, 288.507022)"><g><path d="M 0.890625 -18.75 L 0.890625 -24 L 21.75 -24 L 21.75 -18.75 L 14.53125 -18.75 L 14.53125 0 L 8.109375 0 L 8.109375 -18.75 Z M 0.890625 -18.75 "/></g></g></g><g fill="#cccccc" fill-opacity="1"><g transform="translate(225.824973, 288.507022)"><g/></g></g><g fill="#cccccc" fill-opacity="1"><g transform="translate(235.687468, 288.507022)"><g><path d="M 1.546875 0 L 1.546875 -24 L 18.421875 -24 L 18.421875 -18.75 L 8.0625 -18.75 L 8.0625 -14.625 L 17.390625 -14.625 L 17.390625 -9.375 L 8.0625 -9.375 L 8.0625 0 Z M 1.546875 0 "/></g></g></g><g fill="#cccccc" fill-opacity="1"><g transform="translate(258.253087, 288.507022)"><g><path d="M 24.796875 -12 C 24.796875 -9.332031 24.273438 -7.082031 23.234375 -5.25 C 22.203125 -3.414062 20.800781 -2.023438 19.03125 -1.078125 C 17.269531 -0.140625 15.300781 0.328125 13.125 0.328125 C 10.9375 0.328125 8.960938 -0.144531 7.203125 -1.09375 C 5.441406 -2.039062 4.039062 -3.429688 3 -5.265625 C 1.96875 -7.097656 1.453125 -9.34375 1.453125 -12 C 1.453125 -14.675781 1.96875 -16.925781 3 -18.75 C 4.039062 -20.582031 5.441406 -21.96875 7.203125 -22.90625 C 8.960938 -23.851562 10.9375 -24.328125 13.125 -24.328125 C 15.300781 -24.328125 17.269531 -23.851562 19.03125 -22.90625 C 20.800781 -21.96875 22.203125 -20.582031 23.234375 -18.75 C 24.273438 -16.925781 24.796875 -14.675781 24.796875 -12 Z M 18.09375 -12 C 18.09375 -13.4375 17.898438 -14.648438 17.515625 -15.640625 C 17.140625 -16.628906 16.582031 -17.378906 15.84375 -17.890625 C 15.113281 -18.398438 14.207031 -18.65625 13.125 -18.65625 C 12.050781 -18.65625 11.144531 -18.398438 10.40625 -17.890625 C 9.664062 -17.378906 9.101562 -16.628906 8.71875 -15.640625 C 8.34375 -14.648438 8.15625 -13.4375 8.15625 -12 C 8.15625 -10.5625 8.34375 -9.347656 8.71875 -8.359375 C 9.101562 -7.367188 9.664062 -6.617188 10.40625 -6.109375 C 11.144531 -5.597656 12.050781 -5.34375 13.125 -5.34375 C 14.207031 -5.34375 15.113281 -5.597656 15.84375 -6.109375 C 16.582031 -6.617188 17.140625 -7.367188 17.515625 -8.359375 C 17.898438 -9.347656 18.09375 -10.5625 18.09375 -12 Z M 18.09375 -12 "/></g></g></g><g fill="#cccccc" fill-opacity="1"><g transform="translate(287.80308, 288.507022)"><g><path d="M 15.75 -24 L 22.265625 -24 L 22.265625 -8.625 C 22.265625 -6.800781 21.828125 -5.222656 20.953125 -3.890625 C 20.085938 -2.554688 18.875 -1.523438 17.3125 -0.796875 C 15.757812 -0.078125 13.957031 0.28125 11.90625 0.28125 C 9.832031 0.28125 8.019531 -0.078125 6.46875 -0.796875 C 4.914062 -1.523438 3.707031 -2.554688 2.84375 -3.890625 C 1.976562 -5.222656 1.546875 -6.800781 1.546875 -8.625 L 1.546875 -24 L 8.0625 -24 L 8.0625 -9.1875 C 8.0625 -8.445312 8.222656 -7.785156 8.546875 -7.203125 C 8.878906 -6.617188 9.335938 -6.160156 9.921875 -5.828125 C 10.503906 -5.503906 11.164062 -5.34375 11.90625 -5.34375 C 12.65625 -5.34375 13.316406 -5.503906 13.890625 -5.828125 C 14.472656 -6.160156 14.925781 -6.617188 15.25 -7.203125 C 15.582031 -7.785156 15.75 -8.445312 15.75 -9.1875 Z M 15.75 -24 "/></g></g></g><g fill="#cccccc" fill-opacity="1"><g transform="translate(314.915574, 288.507022)"><g><path d="M 22.3125 -24 L 22.3125 0 L 16.875 0 L 8.203125 -12.609375 L 8.0625 -12.609375 L 8.0625 0 L 1.546875 0 L 1.546875 -24 L 7.078125 -24 L 15.609375 -11.4375 L 15.796875 -11.4375 L 15.796875 -24 Z M 22.3125 -24 "/></g></g></g><g fill="#cccccc" fill-opacity="1"><g transform="translate(342.074943, 288.507022)"><g><path d="M 10.78125 0 L 1.546875 0 L 1.546875 -24 L 10.6875 -24 C 13.15625 -24 15.289062 -23.519531 17.09375 -22.5625 C 18.894531 -21.601562 20.285156 -20.226562 21.265625 -18.4375 C 22.242188 -16.644531 22.734375 -14.5 22.734375 -12 C 22.734375 -9.5 22.242188 -7.351562 21.265625 -5.5625 C 20.296875 -3.769531 18.914062 -2.394531 17.125 -1.4375 C 15.332031 -0.476562 13.21875 0 10.78125 0 Z M 8.0625 -5.53125 L 10.546875 -5.53125 C 11.734375 -5.53125 12.742188 -5.722656 13.578125 -6.109375 C 14.421875 -6.492188 15.0625 -7.15625 15.5 -8.09375 C 15.945312 -9.03125 16.171875 -10.332031 16.171875 -12 C 16.171875 -13.675781 15.945312 -14.984375 15.5 -15.921875 C 15.050781 -16.859375 14.394531 -17.515625 13.53125 -17.890625 C 12.664062 -18.273438 11.609375 -18.46875 10.359375 -18.46875 L 8.0625 -18.46875 Z M 8.0625 -5.53125 "/></g></g></g><g clip-path="url(#8ec5d2b0c8)"><path fill="#6d513e" d="M 230.632812 163.140625 C 229.890625 162.300781 229.390625 161.261719 229.265625 160.148438 C 229.015625 158.121094 228.289062 156.304688 227.136719 154.652344 C 226.25 153.402344 226.046875 151.8125 226.410156 150.320312 C 227.25 146.878906 227.402344 143.007812 227.226562 138.714844 C 228.476562 139.328125 229.492188 139.828125 230.117188 140.128906 C 230.554688 140.34375 231.03125 140.429688 231.519531 140.394531 L 237.292969 139.929688 C 239.371094 139.765625 240.445312 137.414062 239.257812 135.710938 C 237.890625 133.746094 236.378906 131.054688 235.324219 127.785156 C 231.207031 114.914062 229.640625 95.285156 202.722656 92.917969 C 166.667969 89.75 163.4375 124.355469 157.503906 131.765625 C 154.648438 135.324219 151.582031 137.289062 149.152344 138.363281 C 147.5625 139.066406 147.460938 141.269531 148.976562 142.121094 L 153.359375 144.613281 C 153.820312 144.875 154.371094 144.949219 154.898438 144.824219 L 167.480469 141.808594 C 166.816406 147.230469 168.144531 151.371094 172.039062 153.851562 C 170.199219 154.953125 168.40625 156.105469 166.667969 157.308594 C 166.667969 157.308594 176.660156 165.945312 177.320312 172.917969 C 177.972656 179.679688 170.511719 195.253906 170.058594 196.195312 C 170.046875 196.21875 170.035156 196.230469 170.035156 196.230469 C 164.339844 203.265625 151.742188 241.300781 151.742188 241.300781 L 134.605469 218.214844 C 133.390625 216.601562 131.335938 215.863281 129.382812 216.375 C 128.734375 216.539062 128.007812 216.738281 127.230469 216.953125 C 127.230469 216.953125 127.519531 214.171875 126.441406 211.394531 C 125.378906 208.601562 116.6875 203.542969 116.6875 203.542969 L 114.859375 196.695312 C 117.425781 193.1875 117.578125 185.601562 114.910156 177.640625 C 111.566406 167.671875 105.070312 160.875 100.386719 162.441406 C 95.71875 164.003906 94.628906 173.359375 97.972656 183.324219 C 100.238281 190.082031 103.96875 195.390625 107.585938 197.609375 L 109.414062 203.804688 L 109.390625 203.867188 C 107.574219 203.09375 105.695312 202.253906 103.804688 202.628906 C 100.085938 203.355469 99.324219 207.085938 99.699219 209.488281 C 99.886719 210.753906 101.289062 212.582031 102.527344 213.984375 C 103.503906 215.097656 103.832031 216.6875 103.265625 218.066406 C 102.890625 218.992188 102.578125 220.195312 102.589844 221.597656 C 102.628906 224.964844 107.914062 229.757812 107.914062 229.757812 C 106.960938 232.574219 106.246094 235.707031 105.769531 238.070312 C 105.308594 240.4375 105.832031 242.878906 107.25 244.832031 L 109.515625 247.960938 L 249.046875 247.960938 C 252.039062 212.207031 247.695312 182.445312 230.632812 163.140625 Z M 230.632812 163.140625 " fill-opacity="1" fill-rule="nonzero"/></g><path fill="#655f68" d="M 218.535156 134.421875 C 221.453125 135.875 224.785156 137.511719 227.226562 138.714844 C 216.722656 139.140625 207.03125 140.554688 198.09375 142.960938 L 198.09375 142.945312 C 198.917969 139.929688 198.09375 137.300781 195.636719 135.046875 L 204.714844 132.867188 C 209.359375 131.753906 214.253906 132.304688 218.535156 134.421875 Z M 218.535156 134.421875 " fill-opacity="1" fill-rule="nonzero"/><path fill="#e7f2f1" d="M 109.851562 179.328125 C 112.15625 186.203125 112.882812 192.164062 111.480469 192.636719 C 110.066406 193.113281 107.046875 187.917969 104.746094 181.042969 C 102.441406 174.171875 101.714844 168.222656 103.128906 167.75 C 104.53125 167.273438 107.550781 172.457031 109.851562 179.328125 Z M 109.851562 179.328125 " fill-opacity="1" fill-rule="nonzero"/><path fill="#655f68" d="M 114.859375 196.695312 L 116.6875 203.542969 C 116.6875 203.542969 116.261719 204.082031 114.320312 204.730469 C 112.769531 205.246094 111.105469 204.59375 109.390625 203.867188 L 109.414062 203.804688 L 107.585938 197.609375 C 103.96875 195.390625 100.238281 190.082031 97.972656 183.324219 C 94.628906 173.359375 95.71875 164.003906 100.386719 162.441406 C 105.070312 160.875 111.566406 167.671875 114.910156 177.640625 C 117.578125 185.601562 117.425781 193.1875 114.859375 196.695312 Z M 111.480469 192.636719 C 112.882812 192.164062 112.15625 186.203125 109.851562 179.328125 C 107.550781 172.457031 104.53125 167.273438 103.128906 167.75 C 101.714844 168.222656 102.441406 174.171875 104.746094 181.042969 C 107.046875 187.917969 110.066406 193.113281 111.480469 192.636719 Z M 111.480469 192.636719 " fill-opacity="1" fill-rule="nonzero"/><path fill="#fec4b9" d="M 126.441406 211.394531 C 127.519531 214.171875 127.230469 216.953125 127.230469 216.953125 C 121.546875 218.515625 113.121094 221.234375 110.714844 224.113281 C 109.628906 225.414062 108.6875 227.492188 107.914062 229.757812 C 107.914062 229.757812 102.628906 224.964844 102.589844 221.597656 C 102.578125 220.195312 102.890625 218.992188 103.265625 218.066406 C 103.832031 216.6875 103.503906 215.097656 102.527344 213.984375 C 101.289062 212.582031 99.886719 210.753906 99.699219 209.488281 C 99.324219 207.085938 100.085938 203.355469 103.804688 202.628906 C 105.695312 202.253906 107.574219 203.09375 109.390625 203.867188 C 111.105469 204.59375 112.769531 205.246094 114.320312 204.730469 C 116.261719 204.082031 116.6875 203.542969 116.6875 203.542969 C 116.6875 203.542969 125.378906 208.601562 126.441406 211.394531 Z M 126.441406 211.394531 " fill-opacity="1" fill-rule="nonzero"/><path fill="#fec4b9" d="M 195.636719 135.046875 C 198.09375 137.300781 198.917969 139.929688 198.09375 142.945312 L 198.09375 142.960938 C 188.578125 145.5 179.914062 149.144531 172.039062 153.851562 C 168.144531 151.371094 166.816406 147.230469 167.480469 141.808594 Z M 195.636719 135.046875 " fill-opacity="1" fill-rule="nonzero"/><g clip-path="url(#aba84a9ce3)"><path fill="#7f5d46" d="M 151.742188 241.300781 L 156.6875 247.960938 L 109.515625 247.960938 L 107.25 244.832031 C 105.832031 242.878906 105.308594 240.4375 105.769531 238.070312 C 106.246094 235.707031 106.960938 232.574219 107.914062 229.757812 C 108.6875 227.492188 109.628906 225.414062 110.714844 224.113281 C 113.121094 221.234375 121.546875 218.515625 127.230469 216.953125 C 128.007812 216.738281 128.734375 216.539062 129.382812 216.375 C 131.335938 215.863281 133.390625 216.601562 134.605469 218.214844 Z M 151.742188 241.300781 " fill-opacity="1" fill-rule="nonzero"/></g><path fill="#634a39" d="M 202.722656 92.917969 C 229.640625 95.285156 231.207031 114.914062 235.324219 127.785156 C 236.378906 131.054688 237.890625 133.746094 239.257812 135.710938 C 240.445312 137.414062 239.371094 139.765625 237.292969 139.929688 L 231.519531 140.394531 C 231.03125 140.429688 230.554688 140.34375 230.117188 140.128906 C 222.867188 97.035156 193.824219 92.929688 193.824219 92.929688 C 196.550781 92.65625 199.507812 92.628906 202.722656 92.917969 Z M 202.722656 92.917969 " fill-opacity="1" fill-rule="nonzero"/><g clip-path="url(#d456bfb499)"><path fill="#634a39" d="M 212.765625 212.34375 C 212.765625 212.34375 218.75 233.214844 207.621094 247.960938 L 200.871094 247.960938 C 208.28125 237.445312 212.253906 225.578125 212.765625 212.34375 Z M 212.765625 212.34375 " fill-opacity="1" fill-rule="nonzero"/></g><g clip-path="url(#a4b13f0ed7)"><path fill="#634a39" d="M 230.632812 163.140625 C 247.695312 182.445312 252.039062 212.207031 249.046875 247.960938 L 234.449219 247.960938 C 248.859375 200.335938 219.023438 159.625 219.023438 159.625 C 222.441406 157.082031 224.871094 153.953125 226.410156 150.320312 C 226.046875 151.8125 226.25 153.402344 227.136719 154.652344 C 228.289062 156.304688 229.015625 158.121094 229.265625 160.148438 C 229.390625 161.261719 229.890625 162.300781 230.632812 163.140625 Z M 230.632812 163.140625 " fill-opacity="1" fill-rule="nonzero"/></g><path fill="#634a39" d="M 188.214844 181.996094 C 190.78125 180.480469 192.992188 179.5625 194.617188 179.382812 C 200.683594 178.734375 206.148438 182.371094 206.203125 182.40625 C 206.777344 182.792969 207.554688 182.640625 207.941406 182.066406 C 208.328125 181.496094 208.179688 180.71875 207.605469 180.332031 C 207.355469 180.160156 201.332031 176.152344 194.351562 176.894531 C 191.480469 177.210938 187.6875 179.054688 183.070312 182.382812 C 180.605469 184.171875 177.996094 186.332031 175.519531 188.636719 C 175.015625 189.105469 174.988281 189.898438 175.457031 190.40625 C 175.707031 190.667969 176.039062 190.804688 176.375 190.804688 C 176.679688 190.804688 176.988281 190.691406 177.230469 190.46875 C 179.539062 188.316406 181.960938 186.304688 184.265625 184.617188 C 196.671875 183.457031 205.636719 189.308594 211.625 202.492188 C 211.835938 202.953125 212.289062 203.226562 212.765625 203.226562 C 212.941406 203.226562 213.117188 203.191406 213.285156 203.113281 C 213.914062 202.828125 214.191406 202.085938 213.90625 201.457031 C 208.191406 188.882812 199.554688 182.367188 188.214844 181.996094 Z M 188.214844 181.996094 " fill-opacity="1" fill-rule="nonzero"/><path fill="#634a39" d="M 220.589844 148.125 C 220.003906 147.753906 219.234375 147.925781 218.859375 148.507812 C 216.328125 152.472656 212.445312 155.363281 206.992188 157.34375 C 206.34375 157.582031 206.007812 158.300781 206.242188 158.949219 C 206.429688 159.457031 206.910156 159.773438 207.421875 159.773438 C 207.5625 159.773438 207.707031 159.75 207.847656 159.699219 C 213.839844 157.519531 218.128906 154.300781 220.972656 149.855469 C 221.339844 149.273438 221.171875 148.5 220.589844 148.125 Z M 220.589844 148.125 " fill-opacity="1" fill-rule="nonzero"/></svg>