<svg xmlns="http://www.w3.org/2000/svg" xmlns:xlink="http://www.w3.org/1999/xlink" width="1024" zoomAndPan="magnify" viewBox="0 0 768 767.999994" height="1024" preserveAspectRatio="xMidYMid meet" version="1.0"><defs><clipPath id="ad82b3e577"><path d="M 0 64.320312 L 161 64.320312 L 161 225 L 0 225 Z M 0 64.320312 " clip-rule="nonzero"/></clipPath><clipPath id="5f7f3dec84"><path d="M 607 64.320312 L 768 64.320312 L 768 225 L 607 225 Z M 607 64.320312 " clip-rule="nonzero"/></clipPath><clipPath id="ce84c3566e"><path d="M 0 543 L 161 543 L 161 703.320312 L 0 703.320312 Z M 0 543 " clip-rule="nonzero"/></clipPath><clipPath id="cd965d70c6"><path d="M 607 543 L 768 543 L 768 703.320312 L 607 703.320312 Z M 607 543 " clip-rule="nonzero"/></clipPath></defs><g clip-path="url(#ad82b3e577)"><path fill="#000000" d="M 16.371094 224.070312 C 7.550781 224.070312 0.390625 216.914062 0.390625 208.09375 L 0.390625 144.195312 C 0.390625 100.167969 36.226562 64.320312 80.308594 64.320312 L 144.242188 64.320312 C 153.066406 64.320312 160.226562 71.476562 160.226562 80.296875 C 160.226562 89.113281 153.066406 96.269531 144.242188 96.269531 L 80.308594 96.269531 C 53.871094 96.269531 32.355469 117.773438 32.355469 144.195312 L 32.355469 208.09375 C 32.355469 216.914062 25.195312 224.070312 16.371094 224.070312 Z M 16.371094 224.070312 " fill-opacity="1" fill-rule="nonzero"/></g><g clip-path="url(#5f7f3dec84)"><path fill="#000000" d="M 751.628906 224.070312 C 742.804688 224.070312 735.644531 216.914062 735.644531 208.09375 L 735.644531 144.195312 C 735.644531 117.773438 714.128906 96.269531 687.691406 96.269531 L 623.757812 96.269531 C 614.933594 96.269531 607.773438 89.113281 607.773438 80.296875 C 607.773438 71.476562 614.933594 64.320312 623.757812 64.320312 L 687.691406 64.320312 C 731.773438 64.320312 767.609375 100.167969 767.609375 144.195312 L 767.609375 208.09375 C 767.609375 216.914062 760.449219 224.070312 751.628906 224.070312 Z M 751.628906 224.070312 " fill-opacity="1" fill-rule="nonzero"/></g><g clip-path="url(#ce84c3566e)"><path fill="#000000" d="M 144.242188 703.320312 L 80.308594 703.320312 C 36.226562 703.320312 0.390625 667.472656 0.390625 623.445312 L 0.390625 559.546875 C 0.390625 550.726562 7.550781 543.570312 16.371094 543.570312 C 25.195312 543.570312 32.355469 550.726562 32.355469 559.546875 L 32.355469 623.445312 C 32.355469 649.867188 53.871094 671.371094 80.308594 671.371094 L 144.242188 671.371094 C 153.066406 671.371094 160.226562 678.527344 160.226562 687.34375 C 160.226562 696.164062 153.066406 703.320312 144.242188 703.320312 Z M 144.242188 703.320312 " fill-opacity="1" fill-rule="nonzero"/></g><g clip-path="url(#cd965d70c6)"><path fill="#000000" d="M 687.691406 703.320312 L 623.757812 703.320312 C 614.933594 703.320312 607.773438 696.164062 607.773438 687.34375 C 607.773438 678.527344 614.933594 671.371094 623.757812 671.371094 L 687.691406 671.371094 C 714.128906 671.371094 735.644531 649.867188 735.644531 623.445312 L 735.644531 559.546875 C 735.644531 550.726562 742.804688 543.570312 751.628906 543.570312 C 760.449219 543.570312 767.609375 550.726562 767.609375 559.546875 L 767.609375 623.445312 C 767.609375 667.472656 731.773438 703.320312 687.691406 703.320312 Z M 687.691406 703.320312 " fill-opacity="1" fill-rule="nonzero"/></g><path fill="#000000" d="M 384 575.519531 C 260.828125 575.519531 155.878906 498.265625 128.738281 387.621094 C 128.097656 385.128906 128.097656 382.511719 128.738281 380.019531 C 155.878906 269.375 260.828125 192.121094 384 192.121094 C 507.171875 192.121094 612.121094 269.375 639.261719 380.019531 C 639.902344 382.511719 639.902344 385.128906 639.261719 387.621094 C 612.121094 498.265625 507.171875 575.519531 384 575.519531 Z M 160.738281 383.820312 C 185.863281 478.074219 277.070312 543.570312 384 543.570312 C 490.929688 543.570312 582.136719 478.074219 607.261719 383.820312 C 582.136719 289.566406 490.964844 224.070312 384 224.070312 C 277.035156 224.070312 185.863281 289.566406 160.738281 383.820312 Z M 160.738281 383.820312 " fill-opacity="1" fill-rule="nonzero"/><path fill="#000000" d="M 384 479.671875 C 331.125 479.671875 288.097656 436.664062 288.097656 383.820312 C 288.097656 330.976562 331.125 287.96875 384 287.96875 C 436.875 287.96875 479.902344 330.976562 479.902344 383.820312 C 479.902344 436.664062 436.875 479.671875 384 479.671875 Z M 384 319.921875 C 348.738281 319.921875 320.066406 348.578125 320.066406 383.820312 C 320.066406 419.0625 348.738281 447.71875 384 447.71875 C 419.261719 447.71875 447.933594 419.0625 447.933594 383.820312 C 447.933594 348.578125 419.261719 319.921875 384 319.921875 Z M 384 319.921875 " fill-opacity="1" fill-rule="nonzero"/></svg>