<svg xmlns="http://www.w3.org/2000/svg" xmlns:xlink="http://www.w3.org/1999/xlink" width="500" zoomAndPan="magnify" viewBox="0 0 375 374.999991" height="500" preserveAspectRatio="xMidYMid meet" version="1.0"><defs><g/><clipPath id="575e61e9ff"><path d="M 240 77 L 372 77 L 372 209.484375 L 240 209.484375 Z M 240 77 " clip-rule="nonzero"/></clipPath><clipPath id="14ffdea75e"><path d="M 248 182 L 293 182 L 293 209.484375 L 248 209.484375 Z M 248 182 " clip-rule="nonzero"/></clipPath><clipPath id="93b857b2fb"><path d="M 329 179 L 342 179 L 342 209.484375 L 329 209.484375 Z M 329 179 " clip-rule="nonzero"/></clipPath><clipPath id="d7cc1538d3"><path d="M 345 126 L 372 126 L 372 209.484375 L 345 209.484375 Z M 345 126 " clip-rule="nonzero"/></clipPath></defs><g fill="#cccccc" fill-opacity="1"><g transform="translate(0.0000045, 123.093542)"><g><path d="M 2.4375 0 L 2.4375 -37.9375 L 18.8125 -37.9375 C 21.632812 -37.9375 24.097656 -37.378906 26.203125 -36.265625 C 28.316406 -35.148438 29.957031 -33.585938 31.125 -31.578125 C 32.300781 -29.566406 32.890625 -27.210938 32.890625 -24.515625 C 32.890625 -21.804688 32.285156 -19.457031 31.078125 -17.46875 C 29.878906 -15.476562 28.195312 -13.945312 26.03125 -12.875 C 23.863281 -11.800781 21.335938 -11.265625 18.453125 -11.265625 L 8.671875 -11.265625 L 8.671875 -19.265625 L 16.375 -19.265625 C 17.582031 -19.265625 18.613281 -19.476562 19.46875 -19.90625 C 20.332031 -20.332031 20.992188 -20.9375 21.453125 -21.71875 C 21.921875 -22.507812 22.15625 -23.441406 22.15625 -24.515625 C 22.15625 -25.609375 21.921875 -26.539062 21.453125 -27.3125 C 20.992188 -28.082031 20.332031 -28.671875 19.46875 -29.078125 C 18.613281 -29.492188 17.582031 -29.703125 16.375 -29.703125 L 12.75 -29.703125 L 12.75 0 Z M 2.4375 0 "/></g></g></g><g fill="#cccccc" fill-opacity="1"><g transform="translate(39.435941, 123.093542)"><g><path d="M 2.4375 0 L 2.4375 -37.9375 L 12.75 -37.9375 L 12.75 -8.296875 L 28.078125 -8.296875 L 28.078125 0 Z M 2.4375 0 "/></g></g></g><g fill="#cccccc" fill-opacity="1"><g transform="translate(74.42768, 123.093542)"><g><path d="M 2.4375 0 L 2.4375 -37.9375 L 29.78125 -37.9375 L 29.78125 -29.640625 L 12.75 -29.640625 L 12.75 -23.109375 L 28.375 -23.109375 L 28.375 -14.8125 L 12.75 -14.8125 L 12.75 -8.296875 L 29.703125 -8.296875 L 29.703125 0 Z M 2.4375 0 "/></g></g></g><g fill="#cccccc" fill-opacity="1"><g transform="translate(112.085941, 123.093542)"><g><path d="M 12.296875 0 L 1.1875 0 L 13.703125 -37.9375 L 27.78125 -37.9375 L 40.296875 0 L 29.1875 0 L 20.890625 -27.484375 L 20.59375 -27.484375 Z M 10.21875 -14.96875 L 31.109375 -14.96875 L 31.109375 -7.265625 L 10.21875 -7.265625 Z M 10.21875 -14.96875 "/></g></g></g><g fill="#cccccc" fill-opacity="1"><g transform="translate(158.780729, 123.093542)"><g><path d="M 22.890625 -26.078125 C 22.796875 -27.316406 22.335938 -28.28125 21.515625 -28.96875 C 20.691406 -29.65625 19.445312 -30 17.78125 -30 C 16.71875 -30 15.847656 -29.875 15.171875 -29.625 C 14.503906 -29.375 14.007812 -29.03125 13.6875 -28.59375 C 13.363281 -28.164062 13.195312 -27.671875 13.1875 -27.109375 C 13.164062 -26.660156 13.25 -26.253906 13.4375 -25.890625 C 13.625 -25.523438 13.925781 -25.195312 14.34375 -24.90625 C 14.769531 -24.613281 15.3125 -24.347656 15.96875 -24.109375 C 16.625 -23.878906 17.398438 -23.671875 18.296875 -23.484375 L 21.40625 -22.8125 C 23.507812 -22.375 25.304688 -21.789062 26.796875 -21.0625 C 28.296875 -20.332031 29.519531 -19.472656 30.46875 -18.484375 C 31.414062 -17.503906 32.113281 -16.40625 32.5625 -15.1875 C 33.019531 -13.96875 33.253906 -12.632812 33.265625 -11.1875 C 33.253906 -8.695312 32.628906 -6.585938 31.390625 -4.859375 C 30.160156 -3.128906 28.398438 -1.8125 26.109375 -0.90625 C 23.816406 -0.0078125 21.066406 0.4375 17.859375 0.4375 C 14.554688 0.4375 11.679688 -0.046875 9.234375 -1.015625 C 6.785156 -1.992188 4.882812 -3.5 3.53125 -5.53125 C 2.175781 -7.5625 1.492188 -10.160156 1.484375 -13.328125 L 11.265625 -13.328125 C 11.328125 -12.171875 11.613281 -11.195312 12.125 -10.40625 C 12.644531 -9.613281 13.378906 -9.015625 14.328125 -8.609375 C 15.273438 -8.203125 16.398438 -8 17.703125 -8 C 18.804688 -8 19.726562 -8.132812 20.46875 -8.40625 C 21.207031 -8.675781 21.765625 -9.050781 22.140625 -9.53125 C 22.523438 -10.019531 22.726562 -10.570312 22.75 -11.1875 C 22.726562 -11.769531 22.535156 -12.28125 22.171875 -12.71875 C 21.816406 -13.15625 21.222656 -13.546875 20.390625 -13.890625 C 19.566406 -14.242188 18.453125 -14.578125 17.046875 -14.890625 L 13.265625 -15.703125 C 9.898438 -16.429688 7.25 -17.648438 5.3125 -19.359375 C 3.382812 -21.066406 2.425781 -23.40625 2.4375 -26.375 C 2.425781 -28.78125 3.070312 -30.882812 4.375 -32.6875 C 5.675781 -34.5 7.484375 -35.910156 9.796875 -36.921875 C 12.117188 -37.941406 14.78125 -38.453125 17.78125 -38.453125 C 20.84375 -38.453125 23.488281 -37.9375 25.71875 -36.90625 C 27.957031 -35.882812 29.6875 -34.441406 30.90625 -32.578125 C 32.125 -30.722656 32.738281 -28.554688 32.75 -26.078125 Z M 22.890625 -26.078125 "/></g></g></g><g fill="#cccccc" fill-opacity="1"><g transform="translate(198.735152, 123.093542)"><g><path d="M 2.4375 0 L 2.4375 -37.9375 L 29.78125 -37.9375 L 29.78125 -29.640625 L 12.75 -29.640625 L 12.75 -23.109375 L 28.375 -23.109375 L 28.375 -14.8125 L 12.75 -14.8125 L 12.75 -8.296875 L 29.703125 -8.296875 L 29.703125 0 Z M 2.4375 0 "/></g></g></g><g fill="#cccccc" fill-opacity="1"><g transform="translate(0.0000045, 195.136108)"><g><path d="M 22.890625 -26.078125 C 22.796875 -27.316406 22.335938 -28.28125 21.515625 -28.96875 C 20.691406 -29.65625 19.445312 -30 17.78125 -30 C 16.71875 -30 15.847656 -29.875 15.171875 -29.625 C 14.503906 -29.375 14.007812 -29.03125 13.6875 -28.59375 C 13.363281 -28.164062 13.195312 -27.671875 13.1875 -27.109375 C 13.164062 -26.660156 13.25 -26.253906 13.4375 -25.890625 C 13.625 -25.523438 13.925781 -25.195312 14.34375 -24.90625 C 14.769531 -24.613281 15.3125 -24.347656 15.96875 -24.109375 C 16.625 -23.878906 17.398438 -23.671875 18.296875 -23.484375 L 21.40625 -22.8125 C 23.507812 -22.375 25.304688 -21.789062 26.796875 -21.0625 C 28.296875 -20.332031 29.519531 -19.472656 30.46875 -18.484375 C 31.414062 -17.503906 32.113281 -16.40625 32.5625 -15.1875 C 33.019531 -13.96875 33.253906 -12.632812 33.265625 -11.1875 C 33.253906 -8.695312 32.628906 -6.585938 31.390625 -4.859375 C 30.160156 -3.128906 28.398438 -1.8125 26.109375 -0.90625 C 23.816406 -0.0078125 21.066406 0.4375 17.859375 0.4375 C 14.554688 0.4375 11.679688 -0.046875 9.234375 -1.015625 C 6.785156 -1.992188 4.882812 -3.5 3.53125 -5.53125 C 2.175781 -7.5625 1.492188 -10.160156 1.484375 -13.328125 L 11.265625 -13.328125 C 11.328125 -12.171875 11.613281 -11.195312 12.125 -10.40625 C 12.644531 -9.613281 13.378906 -9.015625 14.328125 -8.609375 C 15.273438 -8.203125 16.398438 -8 17.703125 -8 C 18.804688 -8 19.726562 -8.132812 20.46875 -8.40625 C 21.207031 -8.675781 21.765625 -9.050781 22.140625 -9.53125 C 22.523438 -10.019531 22.726562 -10.570312 22.75 -11.1875 C 22.726562 -11.769531 22.535156 -12.28125 22.171875 -12.71875 C 21.816406 -13.15625 21.222656 -13.546875 20.390625 -13.890625 C 19.566406 -14.242188 18.453125 -14.578125 17.046875 -14.890625 L 13.265625 -15.703125 C 9.898438 -16.429688 7.25 -17.648438 5.3125 -19.359375 C 3.382812 -21.066406 2.425781 -23.40625 2.4375 -26.375 C 2.425781 -28.78125 3.070312 -30.882812 4.375 -32.6875 C 5.675781 -34.5 7.484375 -35.910156 9.796875 -36.921875 C 12.117188 -37.941406 14.78125 -38.453125 17.78125 -38.453125 C 20.84375 -38.453125 23.488281 -37.9375 25.71875 -36.90625 C 27.957031 -35.882812 29.6875 -34.441406 30.90625 -32.578125 C 32.125 -30.722656 32.738281 -28.554688 32.75 -26.078125 Z M 22.890625 -26.078125 "/></g></g></g><g fill="#cccccc" fill-opacity="1"><g transform="translate(39.954431, 195.136108)"><g><path d="M 2.4375 0 L 2.4375 -37.9375 L 29.78125 -37.9375 L 29.78125 -29.640625 L 12.75 -29.640625 L 12.75 -23.109375 L 28.375 -23.109375 L 28.375 -14.8125 L 12.75 -14.8125 L 12.75 -8.296875 L 29.703125 -8.296875 L 29.703125 0 Z M 2.4375 0 "/></g></g></g><g fill="#cccccc" fill-opacity="1"><g transform="translate(77.612689, 195.136108)"><g><path d="M 2.4375 0 L 2.4375 -37.9375 L 12.75 -37.9375 L 12.75 -8.296875 L 28.078125 -8.296875 L 28.078125 0 Z M 2.4375 0 "/></g></g></g><g fill="#cccccc" fill-opacity="1"><g transform="translate(112.604432, 195.136108)"><g><path d="M 2.4375 0 L 2.4375 -37.9375 L 29.78125 -37.9375 L 29.78125 -29.640625 L 12.75 -29.640625 L 12.75 -23.109375 L 28.375 -23.109375 L 28.375 -14.8125 L 12.75 -14.8125 L 12.75 -8.296875 L 29.703125 -8.296875 L 29.703125 0 Z M 2.4375 0 "/></g></g></g><g fill="#cccccc" fill-opacity="1"><g transform="translate(150.262685, 195.136108)"><g><path d="M 37.859375 -23.703125 L 27.40625 -23.703125 C 27.332031 -24.566406 27.140625 -25.347656 26.828125 -26.046875 C 26.515625 -26.753906 26.082031 -27.363281 25.53125 -27.875 C 24.976562 -28.394531 24.3125 -28.789062 23.53125 -29.0625 C 22.757812 -29.34375 21.878906 -29.484375 20.890625 -29.484375 C 19.160156 -29.484375 17.695312 -29.0625 16.5 -28.21875 C 15.3125 -27.382812 14.410156 -26.179688 13.796875 -24.609375 C 13.191406 -23.046875 12.890625 -21.164062 12.890625 -18.96875 C 12.890625 -16.644531 13.203125 -14.703125 13.828125 -13.140625 C 14.453125 -11.578125 15.351562 -10.40625 16.53125 -9.625 C 17.71875 -8.84375 19.144531 -8.453125 20.8125 -8.453125 C 21.769531 -8.453125 22.625 -8.570312 23.375 -8.8125 C 24.125 -9.050781 24.773438 -9.394531 25.328125 -9.84375 C 25.890625 -10.300781 26.34375 -10.851562 26.6875 -11.5 C 27.039062 -12.15625 27.28125 -12.890625 27.40625 -13.703125 L 37.859375 -13.625 C 37.734375 -12.019531 37.28125 -10.382812 36.5 -8.71875 C 35.726562 -7.0625 34.628906 -5.53125 33.203125 -4.125 C 31.773438 -2.726562 30.007812 -1.601562 27.90625 -0.75 C 25.8125 0.09375 23.375 0.515625 20.59375 0.515625 C 17.113281 0.515625 13.992188 -0.226562 11.234375 -1.71875 C 8.472656 -3.21875 6.289062 -5.414062 4.6875 -8.3125 C 3.09375 -11.21875 2.296875 -14.769531 2.296875 -18.96875 C 2.296875 -23.1875 3.109375 -26.742188 4.734375 -29.640625 C 6.367188 -32.535156 8.566406 -34.726562 11.328125 -36.21875 C 14.097656 -37.707031 17.1875 -38.453125 20.59375 -38.453125 C 22.988281 -38.453125 25.191406 -38.125 27.203125 -37.46875 C 29.222656 -36.8125 30.988281 -35.859375 32.5 -34.609375 C 34.019531 -33.359375 35.242188 -31.816406 36.171875 -29.984375 C 37.097656 -28.160156 37.660156 -26.066406 37.859375 -23.703125 Z M 37.859375 -23.703125 "/></g></g></g><g fill="#cccccc" fill-opacity="1"><g transform="translate(195.550144, 195.136108)"><g><path d="M 1.40625 -29.640625 L 1.40625 -37.9375 L 34.375 -37.9375 L 34.375 -29.640625 L 22.96875 -29.640625 L 22.96875 0 L 12.8125 0 L 12.8125 -29.640625 Z M 1.40625 -29.640625 "/></g></g></g><g fill="#cccccc" fill-opacity="1"><g transform="translate(0.0000045, 267.178674)"><g><path d="M 22.890625 -26.078125 C 22.796875 -27.316406 22.335938 -28.28125 21.515625 -28.96875 C 20.691406 -29.65625 19.445312 -30 17.78125 -30 C 16.71875 -30 15.847656 -29.875 15.171875 -29.625 C 14.503906 -29.375 14.007812 -29.03125 13.6875 -28.59375 C 13.363281 -28.164062 13.195312 -27.671875 13.1875 -27.109375 C 13.164062 -26.660156 13.25 -26.253906 13.4375 -25.890625 C 13.625 -25.523438 13.925781 -25.195312 14.34375 -24.90625 C 14.769531 -24.613281 15.3125 -24.347656 15.96875 -24.109375 C 16.625 -23.878906 17.398438 -23.671875 18.296875 -23.484375 L 21.40625 -22.8125 C 23.507812 -22.375 25.304688 -21.789062 26.796875 -21.0625 C 28.296875 -20.332031 29.519531 -19.472656 30.46875 -18.484375 C 31.414062 -17.503906 32.113281 -16.40625 32.5625 -15.1875 C 33.019531 -13.96875 33.253906 -12.632812 33.265625 -11.1875 C 33.253906 -8.695312 32.628906 -6.585938 31.390625 -4.859375 C 30.160156 -3.128906 28.398438 -1.8125 26.109375 -0.90625 C 23.816406 -0.0078125 21.066406 0.4375 17.859375 0.4375 C 14.554688 0.4375 11.679688 -0.046875 9.234375 -1.015625 C 6.785156 -1.992188 4.882812 -3.5 3.53125 -5.53125 C 2.175781 -7.5625 1.492188 -10.160156 1.484375 -13.328125 L 11.265625 -13.328125 C 11.328125 -12.171875 11.613281 -11.195312 12.125 -10.40625 C 12.644531 -9.613281 13.378906 -9.015625 14.328125 -8.609375 C 15.273438 -8.203125 16.398438 -8 17.703125 -8 C 18.804688 -8 19.726562 -8.132812 20.46875 -8.40625 C 21.207031 -8.675781 21.765625 -9.050781 22.140625 -9.53125 C 22.523438 -10.019531 22.726562 -10.570312 22.75 -11.1875 C 22.726562 -11.769531 22.535156 -12.28125 22.171875 -12.71875 C 21.816406 -13.15625 21.222656 -13.546875 20.390625 -13.890625 C 19.566406 -14.242188 18.453125 -14.578125 17.046875 -14.890625 L 13.265625 -15.703125 C 9.898438 -16.429688 7.25 -17.648438 5.3125 -19.359375 C 3.382812 -21.066406 2.425781 -23.40625 2.4375 -26.375 C 2.425781 -28.78125 3.070312 -30.882812 4.375 -32.6875 C 5.675781 -34.5 7.484375 -35.910156 9.796875 -36.921875 C 12.117188 -37.941406 14.78125 -38.453125 17.78125 -38.453125 C 20.84375 -38.453125 23.488281 -37.9375 25.71875 -36.90625 C 27.957031 -35.882812 29.6875 -34.441406 30.90625 -32.578125 C 32.125 -30.722656 32.738281 -28.554688 32.75 -26.078125 Z M 22.890625 -26.078125 "/></g></g></g><g fill="#cccccc" fill-opacity="1"><g transform="translate(39.954431, 267.178674)"><g><path d="M 37.859375 -23.703125 L 27.40625 -23.703125 C 27.332031 -24.566406 27.140625 -25.347656 26.828125 -26.046875 C 26.515625 -26.753906 26.082031 -27.363281 25.53125 -27.875 C 24.976562 -28.394531 24.3125 -28.789062 23.53125 -29.0625 C 22.757812 -29.34375 21.878906 -29.484375 20.890625 -29.484375 C 19.160156 -29.484375 17.695312 -29.0625 16.5 -28.21875 C 15.3125 -27.382812 14.410156 -26.179688 13.796875 -24.609375 C 13.191406 -23.046875 12.890625 -21.164062 12.890625 -18.96875 C 12.890625 -16.644531 13.203125 -14.703125 13.828125 -13.140625 C 14.453125 -11.578125 15.351562 -10.40625 16.53125 -9.625 C 17.71875 -8.84375 19.144531 -8.453125 20.8125 -8.453125 C 21.769531 -8.453125 22.625 -8.570312 23.375 -8.8125 C 24.125 -9.050781 24.773438 -9.394531 25.328125 -9.84375 C 25.890625 -10.300781 26.34375 -10.851562 26.6875 -11.5 C 27.039062 -12.15625 27.28125 -12.890625 27.40625 -13.703125 L 37.859375 -13.625 C 37.734375 -12.019531 37.28125 -10.382812 36.5 -8.71875 C 35.726562 -7.0625 34.628906 -5.53125 33.203125 -4.125 C 31.773438 -2.726562 30.007812 -1.601562 27.90625 -0.75 C 25.8125 0.09375 23.375 0.515625 20.59375 0.515625 C 17.113281 0.515625 13.992188 -0.226562 11.234375 -1.71875 C 8.472656 -3.21875 6.289062 -5.414062 4.6875 -8.3125 C 3.09375 -11.21875 2.296875 -14.769531 2.296875 -18.96875 C 2.296875 -23.1875 3.109375 -26.742188 4.734375 -29.640625 C 6.367188 -32.535156 8.566406 -34.726562 11.328125 -36.21875 C 14.097656 -37.707031 17.1875 -38.453125 20.59375 -38.453125 C 22.988281 -38.453125 25.191406 -38.125 27.203125 -37.46875 C 29.222656 -36.8125 30.988281 -35.859375 32.5 -34.609375 C 34.019531 -33.359375 35.242188 -31.816406 36.171875 -29.984375 C 37.097656 -28.160156 37.660156 -26.066406 37.859375 -23.703125 Z M 37.859375 -23.703125 "/></g></g></g><g fill="#cccccc" fill-opacity="1"><g transform="translate(85.241894, 267.178674)"><g><path d="M 2.4375 0 L 2.4375 -37.9375 L 29.78125 -37.9375 L 29.78125 -29.640625 L 12.75 -29.640625 L 12.75 -23.109375 L 28.375 -23.109375 L 28.375 -14.8125 L 12.75 -14.8125 L 12.75 -8.296875 L 29.703125 -8.296875 L 29.703125 0 Z M 2.4375 0 "/></g></g></g><g fill="#cccccc" fill-opacity="1"><g transform="translate(122.900156, 267.178674)"><g><path d="M 35.265625 -37.9375 L 35.265625 0 L 26.671875 0 L 12.96875 -19.921875 L 12.75 -19.921875 L 12.75 0 L 2.4375 0 L 2.4375 -37.9375 L 11.1875 -37.9375 L 24.671875 -18.078125 L 24.96875 -18.078125 L 24.96875 -37.9375 Z M 35.265625 -37.9375 "/></g></g></g><g fill="#cccccc" fill-opacity="1"><g transform="translate(165.817376, 267.178674)"><g><path d="M 12.296875 0 L 1.1875 0 L 13.703125 -37.9375 L 27.78125 -37.9375 L 40.296875 0 L 29.1875 0 L 20.890625 -27.484375 L 20.59375 -27.484375 Z M 10.21875 -14.96875 L 31.109375 -14.96875 L 31.109375 -7.265625 L 10.21875 -7.265625 Z M 10.21875 -14.96875 "/></g></g></g><g fill="#cccccc" fill-opacity="1"><g transform="translate(212.512164, 267.178674)"><g><path d="M 2.4375 0 L 2.4375 -37.9375 L 18.8125 -37.9375 C 21.632812 -37.9375 24.097656 -37.421875 26.203125 -36.390625 C 28.316406 -35.367188 29.957031 -33.894531 31.125 -31.96875 C 32.300781 -30.039062 32.890625 -27.734375 32.890625 -25.046875 C 32.890625 -22.328125 32.285156 -20.035156 31.078125 -18.171875 C 29.878906 -16.304688 28.195312 -14.894531 26.03125 -13.9375 C 23.863281 -12.988281 21.335938 -12.515625 18.453125 -12.515625 L 8.671875 -12.515625 L 8.671875 -20.515625 L 16.375 -20.515625 C 17.582031 -20.515625 18.613281 -20.664062 19.46875 -20.96875 C 20.332031 -21.269531 20.992188 -21.753906 21.453125 -22.421875 C 21.921875 -23.085938 22.15625 -23.960938 22.15625 -25.046875 C 22.15625 -26.128906 21.921875 -27.007812 21.453125 -27.6875 C 20.992188 -28.375 20.332031 -28.878906 19.46875 -29.203125 C 18.613281 -29.535156 17.582031 -29.703125 16.375 -29.703125 L 12.75 -29.703125 L 12.75 0 Z M 24.671875 -17.40625 L 34.15625 0 L 22.96875 0 L 13.703125 -17.40625 Z M 24.671875 -17.40625 "/></g></g></g><g fill="#cccccc" fill-opacity="1"><g transform="translate(252.540657, 267.178674)"><g><path d="M 12.75 -37.9375 L 12.75 0 L 2.4375 0 L 2.4375 -37.9375 Z M 12.75 -37.9375 "/></g></g></g><g fill="#cccccc" fill-opacity="1"><g transform="translate(272.940628, 267.178674)"><g><path d="M 39.1875 -18.96875 C 39.1875 -14.738281 38.363281 -11.175781 36.71875 -8.28125 C 35.082031 -5.382812 32.867188 -3.191406 30.078125 -1.703125 C 27.285156 -0.222656 24.175781 0.515625 20.75 0.515625 C 17.289062 0.515625 14.164062 -0.234375 11.375 -1.734375 C 8.59375 -3.234375 6.382812 -5.429688 4.75 -8.328125 C 3.113281 -11.222656 2.296875 -14.769531 2.296875 -18.96875 C 2.296875 -23.1875 3.113281 -26.742188 4.75 -29.640625 C 6.382812 -32.535156 8.59375 -34.726562 11.375 -36.21875 C 14.164062 -37.707031 17.289062 -38.453125 20.75 -38.453125 C 24.175781 -38.453125 27.285156 -37.707031 30.078125 -36.21875 C 32.867188 -34.726562 35.082031 -32.535156 36.71875 -29.640625 C 38.363281 -26.742188 39.1875 -23.1875 39.1875 -18.96875 Z M 28.59375 -18.96875 C 28.59375 -21.238281 28.289062 -23.15625 27.6875 -24.71875 C 27.09375 -26.28125 26.210938 -27.460938 25.046875 -28.265625 C 23.878906 -29.078125 22.445312 -29.484375 20.75 -29.484375 C 19.039062 -29.484375 17.601562 -29.078125 16.4375 -28.265625 C 15.269531 -27.460938 14.382812 -26.28125 13.78125 -24.71875 C 13.1875 -23.15625 12.890625 -21.238281 12.890625 -18.96875 C 12.890625 -16.695312 13.1875 -14.78125 13.78125 -13.21875 C 14.382812 -11.65625 15.269531 -10.46875 16.4375 -9.65625 C 17.601562 -8.851562 19.039062 -8.453125 20.75 -8.453125 C 22.445312 -8.453125 23.878906 -8.851562 25.046875 -9.65625 C 26.210938 -10.46875 27.09375 -11.65625 27.6875 -13.21875 C 28.289062 -14.78125 28.59375 -16.695312 28.59375 -18.96875 Z M 28.59375 -18.96875 "/></g></g></g><g fill="#cccccc" fill-opacity="1"><g transform="translate(319.635416, 267.178674)"><g/></g></g><g fill="#cccccc" fill-opacity="1"><g transform="translate(335.220824, 267.178674)"><g><path d="M 14.453125 -37.9375 L 13.484375 -11.859375 L 5.03125 -11.859375 L 4.078125 -37.9375 Z M 9.265625 0.59375 C 7.828125 0.59375 6.597656 0.09375 5.578125 -0.90625 C 4.566406 -1.914062 4.066406 -3.144531 4.078125 -4.59375 C 4.066406 -6 4.566406 -7.203125 5.578125 -8.203125 C 6.597656 -9.203125 7.828125 -9.703125 9.265625 -9.703125 C 10.617188 -9.703125 11.816406 -9.203125 12.859375 -8.203125 C 13.898438 -7.203125 14.429688 -6 14.453125 -4.59375 C 14.429688 -3.632812 14.175781 -2.757812 13.6875 -1.96875 C 13.207031 -1.1875 12.578125 -0.5625 11.796875 -0.09375 C 11.015625 0.363281 10.171875 0.59375 9.265625 0.59375 Z M 9.265625 0.59375 "/></g></g></g><g fill="#cccccc" fill-opacity="1"><g transform="translate(358.953926, 267.178674)"><g><path d="M 14.453125 -37.9375 L 13.484375 -11.859375 L 5.03125 -11.859375 L 4.078125 -37.9375 Z M 9.265625 0.59375 C 7.828125 0.59375 6.597656 0.09375 5.578125 -0.90625 C 4.566406 -1.914062 4.066406 -3.144531 4.078125 -4.59375 C 4.066406 -6 4.566406 -7.203125 5.578125 -8.203125 C 6.597656 -9.203125 7.828125 -9.703125 9.265625 -9.703125 C 10.617188 -9.703125 11.816406 -9.203125 12.859375 -8.203125 C 13.898438 -7.203125 14.429688 -6 14.453125 -4.59375 C 14.429688 -3.632812 14.175781 -2.757812 13.6875 -1.96875 C 13.207031 -1.1875 12.578125 -0.5625 11.796875 -0.09375 C 11.015625 0.363281 10.171875 0.59375 9.265625 0.59375 Z M 9.265625 0.59375 "/></g></g></g><g clip-path="url(#575e61e9ff)"><path fill="#6d513e" d="M 355.246094 137.152344 C 354.617188 136.4375 354.191406 135.550781 354.082031 134.601562 C 353.871094 132.871094 353.25 131.324219 352.269531 129.914062 C 351.511719 128.847656 351.339844 127.492188 351.648438 126.222656 C 352.363281 123.285156 352.492188 119.984375 352.34375 116.324219 C 353.410156 116.847656 354.273438 117.273438 354.808594 117.53125 C 355.183594 117.710938 355.589844 117.785156 356.003906 117.753906 L 360.925781 117.359375 C 362.699219 117.21875 363.617188 115.214844 362.601562 113.761719 C 361.4375 112.085938 360.148438 109.789062 359.25 107.003906 C 355.738281 96.027344 354.402344 79.285156 331.449219 77.269531 C 300.699219 74.566406 297.945312 104.078125 292.882812 110.398438 C 290.449219 113.429688 287.835938 115.105469 285.761719 116.023438 C 284.40625 116.621094 284.320312 118.5 285.613281 119.226562 L 289.351562 121.351562 C 289.746094 121.578125 290.214844 121.640625 290.664062 121.535156 L 301.394531 118.960938 C 300.828125 123.582031 301.960938 127.117188 305.28125 129.230469 C 303.710938 130.171875 302.183594 131.152344 300.699219 132.179688 C 300.699219 132.179688 309.21875 139.546875 309.785156 145.492188 C 310.339844 151.257812 303.976562 164.539062 303.59375 165.339844 C 303.582031 165.363281 303.570312 165.371094 303.570312 165.371094 C 298.714844 171.371094 287.972656 203.808594 287.972656 203.808594 L 273.355469 184.121094 C 272.320312 182.742188 270.570312 182.113281 268.90625 182.550781 C 268.347656 182.691406 267.730469 182.859375 267.066406 183.042969 C 267.066406 183.042969 267.3125 180.671875 266.394531 178.300781 C 265.488281 175.921875 258.078125 171.605469 258.078125 171.605469 L 256.519531 165.765625 C 258.707031 162.777344 258.835938 156.308594 256.5625 149.515625 C 253.710938 141.019531 248.171875 135.222656 244.175781 136.554688 C 240.195312 137.890625 239.265625 145.867188 242.117188 154.363281 C 244.050781 160.128906 247.230469 164.65625 250.316406 166.546875 L 251.875 171.832031 L 251.855469 171.886719 C 250.304688 171.222656 248.703125 170.507812 247.09375 170.828125 C 243.921875 171.445312 243.269531 174.628906 243.589844 176.679688 C 243.75 177.757812 244.945312 179.316406 246.003906 180.511719 C 246.835938 181.460938 247.113281 182.816406 246.632812 183.992188 C 246.3125 184.78125 246.046875 185.808594 246.054688 187.003906 C 246.089844 189.875 250.59375 193.964844 250.59375 193.964844 C 249.78125 196.367188 249.175781 199.035156 248.769531 201.054688 C 248.375 203.070312 248.820312 205.152344 250.027344 206.820312 L 251.960938 209.488281 L 370.953125 209.488281 C 373.503906 178.996094 369.800781 153.617188 355.246094 137.152344 Z M 355.246094 137.152344 " fill-opacity="1" fill-rule="nonzero"/></g><path fill="#655f68" d="M 344.933594 112.660156 C 347.421875 113.898438 350.261719 115.296875 352.34375 116.324219 C 343.386719 116.6875 335.121094 117.894531 327.496094 119.941406 L 327.496094 119.933594 C 328.203125 117.359375 327.496094 115.117188 325.40625 113.195312 L 333.144531 111.335938 C 337.105469 110.386719 341.28125 110.855469 344.933594 112.660156 Z M 344.933594 112.660156 " fill-opacity="1" fill-rule="nonzero"/><path fill="#e7f2f1" d="M 252.25 150.957031 C 254.214844 156.820312 254.832031 161.902344 253.636719 162.308594 C 252.429688 162.714844 249.855469 158.28125 247.894531 152.421875 C 245.929688 146.558594 245.308594 141.488281 246.515625 141.082031 C 247.710938 140.675781 250.285156 145.097656 252.25 150.957031 Z M 252.25 150.957031 " fill-opacity="1" fill-rule="nonzero"/><path fill="#655f68" d="M 256.519531 165.765625 L 258.078125 171.605469 C 258.078125 171.605469 257.714844 172.066406 256.058594 172.621094 C 254.738281 173.058594 253.316406 172.503906 251.855469 171.886719 L 251.875 171.832031 L 250.316406 166.546875 C 247.230469 164.65625 244.050781 160.128906 242.117188 154.363281 C 239.265625 145.867188 240.195312 137.890625 244.175781 136.554688 C 248.171875 135.222656 253.710938 141.019531 256.5625 149.515625 C 258.835938 156.308594 258.707031 162.777344 256.519531 165.765625 Z M 253.636719 162.308594 C 254.832031 161.902344 254.214844 156.820312 252.25 150.957031 C 250.285156 145.097656 247.710938 140.675781 246.515625 141.082031 C 245.308594 141.488281 245.929688 146.558594 247.894531 152.421875 C 249.855469 158.28125 252.429688 162.714844 253.636719 162.308594 Z M 253.636719 162.308594 " fill-opacity="1" fill-rule="nonzero"/><path fill="#fec4b9" d="M 266.394531 178.300781 C 267.3125 180.671875 267.066406 183.042969 267.066406 183.042969 C 262.222656 184.375 255.035156 186.695312 252.984375 189.148438 C 252.058594 190.257812 251.257812 192.03125 250.59375 193.964844 C 250.59375 193.964844 246.089844 189.875 246.054688 187.003906 C 246.046875 185.808594 246.3125 184.78125 246.632812 183.992188 C 247.113281 182.816406 246.835938 181.460938 246.003906 180.511719 C 244.945312 179.316406 243.75 177.757812 243.589844 176.679688 C 243.269531 174.628906 243.921875 171.445312 247.09375 170.828125 C 248.703125 170.507812 250.304688 171.222656 251.855469 171.886719 C 253.316406 172.503906 254.738281 173.058594 256.058594 172.621094 C 257.714844 172.066406 258.078125 171.605469 258.078125 171.605469 C 258.078125 171.605469 265.488281 175.921875 266.394531 178.300781 Z M 266.394531 178.300781 " fill-opacity="1" fill-rule="nonzero"/><path fill="#fec4b9" d="M 325.40625 113.195312 C 327.496094 115.117188 328.203125 117.359375 327.496094 119.933594 L 327.496094 119.941406 C 319.382812 122.109375 311.996094 125.21875 305.28125 129.230469 C 301.960938 127.117188 300.828125 123.582031 301.394531 118.960938 Z M 325.40625 113.195312 " fill-opacity="1" fill-rule="nonzero"/><g clip-path="url(#14ffdea75e)"><path fill="#7f5d46" d="M 287.972656 203.808594 L 292.191406 209.488281 L 251.960938 209.488281 L 250.027344 206.820312 C 248.820312 205.152344 248.375 203.070312 248.769531 201.054688 C 249.175781 199.035156 249.78125 196.367188 250.59375 193.964844 C 251.257812 192.03125 252.058594 190.257812 252.984375 189.148438 C 255.035156 186.695312 262.222656 184.375 267.066406 183.042969 C 267.730469 182.859375 268.347656 182.691406 268.90625 182.550781 C 270.570312 182.113281 272.320312 182.742188 273.355469 184.121094 Z M 287.972656 203.808594 " fill-opacity="1" fill-rule="nonzero"/></g><path fill="#634a39" d="M 331.449219 77.269531 C 354.402344 79.285156 355.738281 96.027344 359.25 107.003906 C 360.148438 109.789062 361.4375 112.085938 362.601562 113.761719 C 363.617188 115.214844 362.699219 117.21875 360.925781 117.359375 L 356.003906 117.753906 C 355.589844 117.785156 355.183594 117.710938 354.808594 117.53125 C 348.628906 80.78125 323.855469 77.277344 323.855469 77.277344 C 326.183594 77.042969 328.703125 77.023438 331.449219 77.269531 Z M 331.449219 77.269531 " fill-opacity="1" fill-rule="nonzero"/><g clip-path="url(#93b857b2fb)"><path fill="#634a39" d="M 340.011719 179.113281 C 340.011719 179.113281 345.113281 196.910156 335.621094 209.488281 L 329.867188 209.488281 C 336.1875 200.519531 339.574219 190.398438 340.011719 179.113281 Z M 340.011719 179.113281 " fill-opacity="1" fill-rule="nonzero"/></g><g clip-path="url(#d7cc1538d3)"><path fill="#634a39" d="M 355.246094 137.152344 C 369.800781 153.617188 373.503906 178.996094 370.953125 209.488281 L 358.503906 209.488281 C 370.792969 168.875 345.347656 134.152344 345.347656 134.152344 C 348.265625 131.984375 350.335938 129.316406 351.648438 126.222656 C 351.339844 127.492188 351.511719 128.847656 352.269531 129.914062 C 353.25 131.324219 353.871094 132.871094 354.082031 134.601562 C 354.191406 135.550781 354.617188 136.4375 355.246094 137.152344 Z M 355.246094 137.152344 " fill-opacity="1" fill-rule="nonzero"/></g><path fill="#634a39" d="M 319.078125 153.234375 C 321.261719 151.941406 323.148438 151.160156 324.535156 151.003906 C 329.707031 150.453125 334.371094 153.550781 334.417969 153.582031 C 334.90625 153.910156 335.566406 153.785156 335.898438 153.292969 C 336.226562 152.804688 336.101562 152.144531 335.613281 151.8125 C 335.398438 151.667969 330.261719 148.246094 324.308594 148.882812 C 321.859375 149.152344 318.625 150.726562 314.6875 153.5625 C 312.585938 155.085938 310.359375 156.929688 308.25 158.894531 C 307.820312 159.296875 307.792969 159.972656 308.195312 160.40625 C 308.40625 160.628906 308.691406 160.742188 308.976562 160.742188 C 309.238281 160.742188 309.5 160.648438 309.707031 160.457031 C 311.675781 158.625 313.742188 156.90625 315.707031 155.46875 C 326.289062 154.476562 333.933594 159.46875 339.039062 170.710938 C 339.21875 171.105469 339.605469 171.339844 340.011719 171.339844 C 340.160156 171.339844 340.308594 171.308594 340.453125 171.242188 C 340.988281 170.996094 341.226562 170.367188 340.984375 169.828125 C 336.109375 159.105469 328.746094 153.550781 319.078125 153.234375 Z M 319.078125 153.234375 " fill-opacity="1" fill-rule="nonzero"/><path fill="#634a39" d="M 346.683594 124.347656 C 346.183594 124.03125 345.527344 124.179688 345.207031 124.675781 C 343.046875 128.054688 339.738281 130.519531 335.089844 132.210938 C 334.535156 132.414062 334.246094 133.023438 334.449219 133.578125 C 334.609375 134.011719 335.015625 134.28125 335.453125 134.28125 C 335.574219 134.28125 335.699219 134.261719 335.816406 134.21875 C 340.925781 132.359375 344.585938 129.613281 347.007812 125.824219 C 347.324219 125.328125 347.179688 124.667969 346.683594 124.347656 Z M 346.683594 124.347656 " fill-opacity="1" fill-rule="nonzero"/></svg>