<svg xmlns="http://www.w3.org/2000/svg" xmlns:xlink="http://www.w3.org/1999/xlink" width="1024" zoomAndPan="magnify" viewBox="0 0 768 767.999994" height="1024" preserveAspectRatio="xMidYMid meet" version="1.0"><defs><clipPath id="57fd420dd7"><path d="M 48 3 L 720 3 L 720 766 L 48 766 Z M 48 3 " clip-rule="nonzero"/></clipPath></defs><g clip-path="url(#57fd420dd7)"><path fill="#333333" d="M 696.976562 343.742188 L 119.40625 10.304688 C 104.734375 1.839844 86.703125 1.839844 72.046875 10.304688 C 57.390625 18.753906 48.367188 34.382812 48.367188 51.3125 L 48.367188 718.257812 C 48.367188 735.183594 57.390625 750.816406 72.046875 759.265625 C 79.375 763.550781 87.550781 765.617188 95.726562 765.617188 C 103.902344 765.617188 112.078125 763.488281 119.40625 759.265625 L 696.976562 425.824219 C 711.664062 417.359375 720.640625 401.726562 720.640625 384.800781 C 720.640625 367.871094 711.632812 352.222656 696.976562 343.742188 Z M 696.976562 343.742188 " fill-opacity="1" fill-rule="nonzero"/></g></svg>