<svg xmlns="http://www.w3.org/2000/svg" xmlns:xlink="http://www.w3.org/1999/xlink" width="500" zoomAndPan="magnify" viewBox="0 0 375 374.999991" height="500" preserveAspectRatio="xMidYMid meet" version="1.0"><defs><g/><clipPath id="f501e666ad"><path d="M 289.851562 97.835938 L 339.191406 97.835938 L 339.191406 155.710938 L 289.851562 155.710938 Z M 289.851562 97.835938 " clip-rule="nonzero"/></clipPath><clipPath id="a13d949754"><path d="M 232 134 L 289 134 L 289 190 L 232 190 Z M 232 134 " clip-rule="nonzero"/></clipPath><clipPath id="40056f1e4a"><path d="M 307.71875 168.324219 L 266.792969 209.25 L 231.90625 174.363281 L 272.832031 133.4375 Z M 307.71875 168.324219 " clip-rule="nonzero"/></clipPath><clipPath id="6c1a9e7638"><path d="M 308.019531 168.628906 L 267.097656 209.554688 L 231.539062 173.996094 L 272.464844 133.070312 Z M 308.019531 168.628906 " clip-rule="nonzero"/></clipPath><clipPath id="35c65c48ab"><path d="M 296 157 L 352 157 L 352 214 L 296 214 Z M 296 157 " clip-rule="nonzero"/></clipPath><clipPath id="45ac2756cb"><path d="M 317.707031 232.855469 L 276.785156 191.929688 L 311.671875 157.042969 L 352.59375 197.96875 Z M 317.707031 232.855469 " clip-rule="nonzero"/></clipPath><clipPath id="7fa2c2c128"><path d="M 317.40625 233.160156 L 276.480469 192.234375 L 312.039062 156.675781 L 352.960938 197.601562 Z M 317.40625 233.160156 " clip-rule="nonzero"/></clipPath><clipPath id="35ba7bce7b"><path d="M 252 159 L 277 159 L 277 171 L 252 171 Z M 252 159 " clip-rule="nonzero"/></clipPath><clipPath id="36e6b9a1ee"><path d="M 253.871094 156.761719 L 278.613281 163.390625 L 273.703125 181.71875 L 248.957031 175.089844 Z M 253.871094 156.761719 " clip-rule="nonzero"/></clipPath><clipPath id="1694b5f44e"><path d="M 253.871094 156.761719 L 278.613281 163.390625 L 273.703125 181.71875 L 248.957031 175.089844 Z M 253.871094 156.761719 " clip-rule="nonzero"/></clipPath><clipPath id="121d6b1206"><path d="M 254 164 L 273 164 L 273 173 L 254 173 Z M 254 164 " clip-rule="nonzero"/></clipPath><clipPath id="b3e4167124"><path d="M 253.871094 156.761719 L 278.613281 163.390625 L 273.703125 181.71875 L 248.957031 175.089844 Z M 253.871094 156.761719 " clip-rule="nonzero"/></clipPath><clipPath id="8fe162921a"><path d="M 253.871094 156.761719 L 278.613281 163.390625 L 273.703125 181.71875 L 248.957031 175.089844 Z M 253.871094 156.761719 " clip-rule="nonzero"/></clipPath><clipPath id="21e4ffa2e7"><path d="M 257 169 L 269 169 L 269 176 L 257 176 Z M 257 169 " clip-rule="nonzero"/></clipPath><clipPath id="d9b94c1ca1"><path d="M 253.871094 156.761719 L 278.613281 163.390625 L 273.703125 181.71875 L 248.957031 175.089844 Z M 253.871094 156.761719 " clip-rule="nonzero"/></clipPath><clipPath id="379f00eca3"><path d="M 253.871094 156.761719 L 278.613281 163.390625 L 273.703125 181.71875 L 248.957031 175.089844 Z M 253.871094 156.761719 " clip-rule="nonzero"/></clipPath><clipPath id="3cd1fb7bb0"><path d="M 260 174 L 264 174 L 264 179 L 260 179 Z M 260 174 " clip-rule="nonzero"/></clipPath><clipPath id="f9f40850bf"><path d="M 253.871094 156.761719 L 278.613281 163.390625 L 273.703125 181.71875 L 248.957031 175.089844 Z M 253.871094 156.761719 " clip-rule="nonzero"/></clipPath><clipPath id="aece4a9c4b"><path d="M 253.871094 156.761719 L 278.613281 163.390625 L 273.703125 181.71875 L 248.957031 175.089844 Z M 253.871094 156.761719 " clip-rule="nonzero"/></clipPath><clipPath id="5eae68a184"><path d="M 296.539062 115.675781 L 315 115.675781 L 315 134 L 296.539062 134 Z M 296.539062 115.675781 " clip-rule="nonzero"/></clipPath><clipPath id="540635e33e"><path d="M 310 129 L 319 129 L 319 138.449219 L 310 138.449219 Z M 310 129 " clip-rule="nonzero"/></clipPath><clipPath id="df82e6bbf9"><path d="M 306 177 L 342 177 L 342 210 L 306 210 Z M 306 177 " clip-rule="nonzero"/></clipPath><clipPath id="8adc5e76a4"><path d="M 301.425781 182.59375 L 334.472656 173.949219 L 341.433594 200.570312 L 308.390625 209.214844 Z M 301.425781 182.59375 " clip-rule="nonzero"/></clipPath><clipPath id="483cf45613"><path d="M 301.425781 182.59375 L 334.472656 173.949219 L 341.433594 200.570312 L 308.390625 209.214844 Z M 301.425781 182.59375 " clip-rule="nonzero"/></clipPath></defs><g clip-path="url(#f501e666ad)"><path fill="#022437" d="M 293.699219 155.382812 L 338.167969 128.953125 L 338.171875 128.9375 C 339.03125 128.441406 339.617188 127.519531 339.617188 126.453125 C 339.617188 125.496094 339.148438 124.652344 338.429688 124.128906 L 338.429688 124.121094 L 338.398438 124.105469 C 338.261719 124.007812 338.117188 123.925781 337.964844 123.855469 L 293.679688 98.332031 C 293.222656 98.027344 292.671875 97.847656 292.082031 97.847656 C 290.488281 97.847656 289.199219 99.136719 289.199219 100.726562 L 289.199219 153 C 289.199219 154.589844 290.488281 155.878906 292.082031 155.878906 C 292.679688 155.878906 293.238281 155.695312 293.699219 155.382812 Z M 293.699219 155.382812 " fill-opacity="1" fill-rule="nonzero"/></g><g clip-path="url(#a13d949754)"><g clip-path="url(#40056f1e4a)"><g clip-path="url(#6c1a9e7638)"><path fill="#f1931b" d="M 234.859375 176.847656 L 234.863281 176.851562 L 284.996094 189.605469 L 285.003906 189.597656 C 285.964844 189.851562 287.03125 189.617188 287.785156 188.863281 C 288.464844 188.1875 288.726562 187.257812 288.589844 186.378906 L 288.59375 186.375 L 288.585938 186.34375 C 288.558594 186.175781 288.511719 186.015625 288.453125 185.855469 L 275.1875 136.496094 C 275.082031 135.957031 274.820312 135.441406 274.398438 135.019531 C 273.273438 133.894531 271.449219 133.894531 270.324219 135.019531 L 233.363281 171.984375 C 232.238281 173.109375 232.238281 174.933594 233.363281 176.058594 C 233.789062 176.480469 234.3125 176.746094 234.859375 176.847656 Z M 234.859375 176.847656 " fill-opacity="1" fill-rule="nonzero"/></g></g></g><g clip-path="url(#35c65c48ab)"><g clip-path="url(#45ac2756cb)"><g clip-path="url(#7fa2c2c128)"><path fill="#1b718a" d="M 309.183594 160 L 296.429688 210.132812 L 296.4375 210.144531 C 296.179688 211.105469 296.417969 212.171875 297.171875 212.925781 C 297.847656 213.601562 298.773438 213.863281 299.652344 213.726562 L 299.65625 213.730469 L 299.691406 213.722656 C 299.855469 213.695312 300.019531 213.648438 300.175781 213.59375 L 349.535156 200.324219 C 350.078125 200.21875 350.59375 199.957031 351.011719 199.539062 C 352.136719 198.410156 352.136719 196.585938 351.011719 195.460938 L 314.050781 158.5 C 312.925781 157.375 311.101562 157.375 309.976562 158.5 C 309.550781 158.925781 309.289062 159.449219 309.183594 160 Z M 309.183594 160 " fill-opacity="1" fill-rule="nonzero"/></g></g></g><g clip-path="url(#35ba7bce7b)"><g clip-path="url(#36e6b9a1ee)"><g clip-path="url(#1694b5f44e)"><path fill="#f1e9e8" d="M 276.777344 168.164062 C 275.605469 166.136719 274.074219 164.394531 272.222656 162.996094 C 270.433594 161.644531 268.421875 160.664062 266.25 160.078125 C 264.074219 159.496094 261.84375 159.34375 259.617188 159.617188 C 257.3125 159.90625 255.117188 160.644531 253.089844 161.816406 C 252.410156 162.207031 252.179688 163.074219 252.570312 163.753906 C 252.960938 164.433594 253.828125 164.664062 254.507812 164.273438 C 261.433594 160.273438 270.320312 162.65625 274.320312 169.582031 C 274.515625 169.921875 274.832031 170.148438 275.183594 170.242188 C 275.53125 170.335938 275.917969 170.296875 276.257812 170.101562 C 276.9375 169.710938 277.167969 168.839844 276.777344 168.164062 Z M 276.777344 168.164062 " fill-opacity="1" fill-rule="nonzero"/></g></g></g><g clip-path="url(#121d6b1206)"><g clip-path="url(#b3e4167124)"><g clip-path="url(#8fe162921a)"><path fill="#f1e9e8" d="M 264.910156 165.066406 C 261.738281 164.21875 258.421875 164.65625 255.574219 166.296875 C 254.933594 166.667969 254.710938 167.488281 255.082031 168.128906 C 255.453125 168.773438 256.273438 168.992188 256.914062 168.621094 C 261.507812 165.96875 267.402344 167.550781 270.054688 172.140625 C 270.238281 172.464844 270.539062 172.679688 270.867188 172.765625 C 271.199219 172.855469 271.566406 172.816406 271.886719 172.632812 C 272.527344 172.261719 272.746094 171.441406 272.378906 170.800781 C 270.734375 167.953125 268.082031 165.917969 264.910156 165.066406 Z M 264.910156 165.066406 " fill-opacity="1" fill-rule="nonzero"/></g></g></g><g clip-path="url(#21e4ffa2e7)"><g clip-path="url(#d9b94c1ca1)"><g clip-path="url(#379f00eca3)"><path fill="#f1e9e8" d="M 263.65625 169.742188 C 261.726562 169.226562 259.710938 169.492188 257.980469 170.492188 C 257.34375 170.859375 257.125 171.675781 257.492188 172.3125 C 257.859375 172.953125 258.675781 173.171875 259.316406 172.800781 C 261.613281 171.476562 264.558594 172.265625 265.886719 174.5625 C 266.070312 174.882812 266.367188 175.097656 266.695312 175.183594 C 267.027344 175.273438 267.390625 175.234375 267.710938 175.050781 C 268.347656 174.683594 268.566406 173.867188 268.199219 173.230469 C 267.199219 171.496094 265.585938 170.257812 263.65625 169.742188 Z M 263.65625 169.742188 " fill-opacity="1" fill-rule="nonzero"/></g></g></g><g clip-path="url(#3cd1fb7bb0)"><g clip-path="url(#f9f40850bf)"><g clip-path="url(#aece4a9c4b)"><path fill="#f1e9e8" d="M 263.40625 176.949219 C 263.347656 177.160156 263.253906 177.351562 263.121094 177.523438 C 262.988281 177.699219 262.828125 177.839844 262.640625 177.949219 C 262.453125 178.054688 262.25 178.125 262.035156 178.152344 C 261.816406 178.183594 261.605469 178.167969 261.394531 178.113281 C 261.183594 178.054688 260.992188 177.960938 260.820312 177.828125 C 260.648438 177.695312 260.507812 177.535156 260.398438 177.347656 C 260.289062 177.15625 260.21875 176.957031 260.191406 176.738281 C 260.164062 176.523438 260.175781 176.3125 260.234375 176.101562 C 260.289062 175.890625 260.382812 175.699219 260.515625 175.527344 C 260.648438 175.351562 260.808594 175.210938 261 175.101562 C 261.1875 174.996094 261.390625 174.925781 261.605469 174.898438 C 261.820312 174.867188 262.035156 174.882812 262.246094 174.9375 C 262.457031 174.996094 262.648438 175.089844 262.820312 175.222656 C 262.992188 175.355469 263.132812 175.515625 263.242188 175.703125 C 263.351562 175.894531 263.417969 176.09375 263.449219 176.3125 C 263.476562 176.527344 263.460938 176.738281 263.40625 176.949219 Z M 263.40625 176.949219 " fill-opacity="1" fill-rule="nonzero"/></g></g></g><g clip-path="url(#5eae68a184)"><path fill="#f1e9e8" d="M 305.621094 117.949219 C 301.859375 117.949219 298.808594 120.996094 298.808594 124.761719 C 298.808594 128.523438 301.859375 131.574219 305.621094 131.574219 C 309.386719 131.574219 312.4375 128.523438 312.4375 124.761719 C 312.4375 120.996094 309.386719 117.949219 305.621094 117.949219 Z M 296.539062 124.761719 C 296.539062 119.742188 300.605469 115.675781 305.621094 115.675781 C 310.640625 115.675781 314.707031 119.742188 314.707031 124.761719 C 314.707031 129.777344 310.640625 133.84375 305.621094 133.84375 C 300.605469 133.84375 296.539062 129.777344 296.539062 124.761719 Z M 296.539062 124.761719 " fill-opacity="1" fill-rule="evenodd"/></g><path fill="#f1e9e8" d="M 309.597656 124.761719 C 309.597656 122.566406 307.816406 120.785156 305.621094 120.785156 L 305.621094 118.515625 C 309.070312 118.515625 311.867188 121.3125 311.867188 124.761719 Z M 309.597656 124.761719 " fill-opacity="1" fill-rule="evenodd"/><g clip-path="url(#540635e33e)"><path fill="#f1e9e8" d="M 312.105469 129.636719 L 318.917969 136.449219 L 317.3125 138.054688 L 310.496094 131.242188 Z M 312.105469 129.636719 " fill-opacity="1" fill-rule="evenodd"/></g><g clip-path="url(#df82e6bbf9)"><g clip-path="url(#8adc5e76a4)"><g clip-path="url(#483cf45613)"><path fill="#f1e9e8" d="M 338.621094 194.5 L 333.828125 195.757812 L 328.109375 192.851562 C 328.042969 192.816406 327.972656 192.792969 327.898438 192.777344 C 328.226562 190.9375 327.914062 189.042969 327.84375 187.1875 C 329.839844 186.214844 331.789062 185.085938 333.5 183.652344 C 334.066406 183.054688 333.320312 182.035156 332.574219 182.339844 C 331.273438 183.1875 330.046875 184.152344 328.664062 184.875 C 327.363281 183.007812 326.085938 181.117188 324.765625 179.257812 C 323.785156 177.878906 321.917969 177.25 320.296875 177.714844 C 318.554688 178.164062 316.816406 178.617188 315.082031 179.082031 C 313.417969 179.511719 312.144531 181.070312 312.023438 182.78125 C 311.808594 184.980469 311.617188 187.183594 311.402344 189.386719 C 309.890625 189.414062 308.390625 189.242188 306.890625 189.085938 C 306.0625 188.996094 305.71875 190.324219 306.496094 190.660156 C 308.710938 191.117188 311 191.121094 313.246094 190.992188 C 314.117188 192.683594 314.773438 194.535156 316.015625 195.996094 C 316.011719 196.003906 316.003906 196.011719 315.996094 196.019531 L 312.433594 201.351562 L 307.636719 202.605469 C 307.132812 202.738281 306.832031 203.253906 306.964844 203.757812 L 308.1875 208.445312 C 308.320312 208.949219 308.835938 209.253906 309.34375 209.121094 C 309.847656 208.988281 310.148438 208.472656 310.019531 207.964844 L 309.03125 204.195312 L 313.261719 203.089844 C 313.484375 203.03125 313.679688 202.890625 313.808594 202.699219 L 317.394531 197.332031 C 318.734375 198.40625 320.355469 199.125 322.046875 199.433594 C 321.855469 200.449219 321.574219 201.453125 321.441406 202.476562 C 321.480469 203.269531 322.667969 203.515625 323.007812 202.804688 C 323.261719 202.0625 323.355469 201.277344 323.535156 200.519531 C 324.109375 201.097656 324.539062 201.84375 325.21875 202.304688 C 325.921875 202.664062 326.71875 201.695312 326.230469 201.078125 C 325.636719 200.292969 324.929688 199.601562 324.304688 198.84375 C 325.660156 197.710938 326.742188 196.25 327.382812 194.601562 L 333.289062 197.605469 C 333.496094 197.707031 333.734375 197.734375 333.957031 197.675781 L 338.1875 196.570312 L 339.171875 200.34375 C 339.304688 200.847656 339.820312 201.148438 340.328125 201.019531 C 340.832031 200.886719 341.132812 200.371094 341.003906 199.863281 L 339.777344 195.175781 C 339.644531 194.671875 339.128906 194.371094 338.621094 194.5 Z M 326.097656 193.171875 C 325.617188 195.058594 324.40625 196.691406 322.863281 197.851562 C 320.285156 197.59375 317.867188 196.089844 316.539062 193.859375 C 315.980469 192.875 315.535156 191.832031 315.023438 190.824219 C 318.863281 190.332031 322.628906 189.355469 326.210938 187.894531 C 326.269531 189.648438 326.59375 191.449219 326.097656 193.171875 Z M 326.097656 193.171875 " fill-opacity="1" fill-rule="nonzero"/></g></g></g><g fill="#222222" fill-opacity="1"><g transform="translate(23.775826, 195.237037)"><g><path d="M 86.199219 -57.800781 L 70.785156 -57.800781 L 62.40625 -11.558594 L 55.121094 -56.964844 L 33.507812 -56.964844 L 25.882812 -11.726562 L 18.179688 -57.800781 L 2.179688 -57.800781 L 16.082031 0 L 36.273438 0 L 44.0625 -44.984375 L 51.351562 0 L 71.453125 0 Z M 86.199219 -57.800781 "/></g></g></g><g fill="#222222" fill-opacity="1"><g transform="translate(108.876592, 195.237037)"><g><path d="M 12.0625 -62.910156 C 7.371094 -62.910156 4.273438 -60.0625 4.273438 -55.539062 C 4.273438 -51.015625 7.371094 -48.167969 12.0625 -48.167969 C 16.753906 -48.167969 19.851562 -51.015625 19.851562 -55.539062 C 19.851562 -60.0625 16.753906 -62.910156 12.0625 -62.910156 Z M 19.601562 0 L 19.601562 -44.734375 L 4.523438 -44.734375 L 4.523438 0 Z M 19.601562 0 "/></g></g></g><g fill="#222222" fill-opacity="1"><g transform="translate(132.999645, 195.237037)"><g><path d="M 21.78125 -46.074219 L 50.175781 -46.074219 L 50.175781 -57.800781 L 6.703125 -57.800781 L 6.703125 0 L 21.78125 0 L 21.78125 -23.121094 L 47.664062 -23.121094 L 47.664062 -34.847656 L 21.78125 -34.847656 Z M 21.78125 -46.074219 "/></g></g></g><g fill="#222222" fill-opacity="1"><g transform="translate(184.512412, 195.237037)"><g><path d="M 12.0625 -62.910156 C 7.371094 -62.910156 4.273438 -60.0625 4.273438 -55.539062 C 4.273438 -51.015625 7.371094 -48.167969 12.0625 -48.167969 C 16.753906 -48.167969 19.851562 -51.015625 19.851562 -55.539062 C 19.851562 -60.0625 16.753906 -62.910156 12.0625 -62.910156 Z M 19.601562 0 L 19.601562 -44.734375 L 4.523438 -44.734375 L 4.523438 0 Z M 19.601562 0 "/></g></g></g><g fill="#222222" fill-opacity="1"><g transform="translate(208.642346, 195.237037)"><g/></g></g><g fill="#222222" fill-opacity="1"><g transform="translate(117.517465, 220.821355)"><g><path d="M 11.15625 -9.234375 L 11.15625 0 L 9.3125 0 L 9.3125 -4.265625 C 9.3125 -5.734375 9.316406 -6.789062 9.328125 -7.4375 C 9.078125 -6.363281 8.789062 -5.3125 8.46875 -4.28125 L 7.171875 0 L 5.171875 0 L 3.84375 -4.296875 C 3.5 -5.429688 3.222656 -6.472656 3.015625 -7.421875 C 3.035156 -6.773438 3.046875 -5.722656 3.046875 -4.265625 L 3.046875 0 L 1.1875 0 L 1.1875 -9.234375 L 4.109375 -9.234375 L 6.203125 -1.703125 L 8.28125 -9.234375 Z M 11.15625 -9.234375 "/></g></g></g><g fill="#222222" fill-opacity="1"><g transform="translate(129.525505, 220.821355)"><g><path d="M 1.328125 -6.265625 C 1.984375 -6.960938 2.890625 -7.3125 4.046875 -7.3125 C 5.210938 -7.3125 6.117188 -6.960938 6.765625 -6.265625 C 7.421875 -5.578125 7.75 -4.675781 7.75 -3.5625 C 7.75 -2.457031 7.421875 -1.554688 6.765625 -0.859375 C 6.117188 -0.160156 5.210938 0.1875 4.046875 0.1875 C 2.890625 0.1875 1.984375 -0.160156 1.328125 -0.859375 C 0.679688 -1.554688 0.359375 -2.457031 0.359375 -3.5625 C 0.359375 -4.675781 0.679688 -5.578125 1.328125 -6.265625 Z M 2.75 -1.75 C 3.070312 -1.320312 3.507812 -1.109375 4.0625 -1.109375 C 4.613281 -1.109375 5.046875 -1.320312 5.359375 -1.75 C 5.679688 -2.1875 5.84375 -2.789062 5.84375 -3.5625 C 5.84375 -4.332031 5.679688 -4.929688 5.359375 -5.359375 C 5.046875 -5.796875 4.613281 -6.015625 4.0625 -6.015625 C 3.507812 -6.015625 3.070312 -5.796875 2.75 -5.359375 C 2.4375 -4.929688 2.28125 -4.332031 2.28125 -3.5625 C 2.28125 -2.789062 2.4375 -2.1875 2.75 -1.75 Z M 2.75 -1.75 "/></g></g></g><g fill="#222222" fill-opacity="1"><g transform="translate(137.637954, 220.821355)"><g><path d="M 7.484375 -5.3125 C 7.515625 -4.988281 7.53125 -4.554688 7.53125 -4.015625 L 7.53125 0 L 5.6875 0 L 5.6875 -3.765625 C 5.6875 -4.179688 5.679688 -4.507812 5.671875 -4.75 C 5.609375 -5.59375 5.148438 -6.015625 4.296875 -6.015625 C 3.816406 -6.015625 3.425781 -5.785156 3.125 -5.328125 C 2.832031 -4.878906 2.6875 -4.1875 2.6875 -3.25 L 2.6875 0 L 0.84375 0 L 0.84375 -7.125 L 2.6875 -7.125 L 2.6875 -5.96875 L 3.234375 -6.8125 C 3.703125 -7.144531 4.273438 -7.3125 4.953125 -7.3125 C 5.703125 -7.3125 6.289062 -7.132812 6.71875 -6.78125 C 7.15625 -6.4375 7.410156 -5.945312 7.484375 -5.3125 Z M 7.484375 -5.3125 "/></g></g></g><g fill="#222222" fill-opacity="1"><g transform="translate(145.951205, 220.821355)"><g><path d="M 1.03125 -9.5 C 1.21875 -9.6875 1.460938 -9.78125 1.765625 -9.78125 C 2.066406 -9.78125 2.3125 -9.6875 2.5 -9.5 C 2.6875 -9.3125 2.78125 -9.078125 2.78125 -8.796875 C 2.78125 -8.503906 2.6875 -8.265625 2.5 -8.078125 C 2.3125 -7.898438 2.066406 -7.8125 1.765625 -7.8125 C 1.460938 -7.8125 1.21875 -7.898438 1.03125 -8.078125 C 0.84375 -8.265625 0.75 -8.503906 0.75 -8.796875 C 0.75 -9.078125 0.84375 -9.3125 1.03125 -9.5 Z M 2.6875 0 L 0.84375 0 L 0.84375 -7.125 L 2.6875 -7.125 Z M 2.6875 0 "/></g></g></g><g fill="#222222" fill-opacity="1"><g transform="translate(149.51212, 220.821355)"><g><path d="M 3.046875 -5.859375 L 3.046875 -2.5625 C 3.046875 -2.257812 3.050781 -2.046875 3.0625 -1.921875 C 3.09375 -1.578125 3.195312 -1.351562 3.375 -1.25 C 3.550781 -1.144531 3.894531 -1.113281 4.40625 -1.15625 L 4.40625 0.046875 C 4.019531 0.109375 3.613281 0.140625 3.1875 0.140625 C 2.507812 0.140625 2.023438 0.03125 1.734375 -0.1875 C 1.441406 -0.414062 1.273438 -0.789062 1.234375 -1.3125 C 1.210938 -1.53125 1.203125 -1.875 1.203125 -2.34375 L 1.203125 -5.859375 L 0.15625 -5.859375 L 0.15625 -7.0625 L 1.203125 -7.0625 L 1.203125 -8.828125 L 3.046875 -8.828125 L 3.046875 -7.0625 L 4.53125 -7.0625 L 4.53125 -5.859375 Z M 3.046875 -5.859375 "/></g></g></g><g fill="#222222" fill-opacity="1"><g transform="translate(154.344792, 220.821355)"><g><path d="M 1.328125 -6.265625 C 1.984375 -6.960938 2.890625 -7.3125 4.046875 -7.3125 C 5.210938 -7.3125 6.117188 -6.960938 6.765625 -6.265625 C 7.421875 -5.578125 7.75 -4.675781 7.75 -3.5625 C 7.75 -2.457031 7.421875 -1.554688 6.765625 -0.859375 C 6.117188 -0.160156 5.210938 0.1875 4.046875 0.1875 C 2.890625 0.1875 1.984375 -0.160156 1.328125 -0.859375 C 0.679688 -1.554688 0.359375 -2.457031 0.359375 -3.5625 C 0.359375 -4.675781 0.679688 -5.578125 1.328125 -6.265625 Z M 2.75 -1.75 C 3.070312 -1.320312 3.507812 -1.109375 4.0625 -1.109375 C 4.613281 -1.109375 5.046875 -1.320312 5.359375 -1.75 C 5.679688 -2.1875 5.84375 -2.789062 5.84375 -3.5625 C 5.84375 -4.332031 5.679688 -4.929688 5.359375 -5.359375 C 5.046875 -5.796875 4.613281 -6.015625 4.0625 -6.015625 C 3.507812 -6.015625 3.070312 -5.796875 2.75 -5.359375 C 2.4375 -4.929688 2.28125 -4.332031 2.28125 -3.5625 C 2.28125 -2.789062 2.4375 -2.1875 2.75 -1.75 Z M 2.75 -1.75 "/></g></g></g><g fill="#222222" fill-opacity="1"><g transform="translate(162.457241, 220.821355)"><g><path d="M 4.46875 -7.296875 C 4.675781 -7.296875 4.851562 -7.28125 5 -7.25 L 5 -5.765625 C 4.207031 -5.816406 3.625 -5.644531 3.25 -5.25 C 2.875 -4.863281 2.6875 -4.203125 2.6875 -3.265625 L 2.6875 0 L 0.84375 0 L 0.84375 -7.125 L 2.6875 -7.125 L 2.6875 -5.828125 L 3.25 -6.8125 C 3.601562 -7.132812 4.007812 -7.296875 4.46875 -7.296875 Z M 4.46875 -7.296875 "/></g></g></g><g fill="#222222" fill-opacity="1"><g transform="translate(167.544253, 220.821355)"><g><path d="M 1.03125 -9.5 C 1.21875 -9.6875 1.460938 -9.78125 1.765625 -9.78125 C 2.066406 -9.78125 2.3125 -9.6875 2.5 -9.5 C 2.6875 -9.3125 2.78125 -9.078125 2.78125 -8.796875 C 2.78125 -8.503906 2.6875 -8.265625 2.5 -8.078125 C 2.3125 -7.898438 2.066406 -7.8125 1.765625 -7.8125 C 1.460938 -7.8125 1.21875 -7.898438 1.03125 -8.078125 C 0.84375 -8.265625 0.75 -8.503906 0.75 -8.796875 C 0.75 -9.078125 0.84375 -9.3125 1.03125 -9.5 Z M 2.6875 0 L 0.84375 0 L 0.84375 -7.125 L 2.6875 -7.125 Z M 2.6875 0 "/></g></g></g><g fill="#222222" fill-opacity="1"><g transform="translate(171.105168, 220.821355)"><g><path d="M 7.484375 -5.3125 C 7.515625 -4.988281 7.53125 -4.554688 7.53125 -4.015625 L 7.53125 0 L 5.6875 0 L 5.6875 -3.765625 C 5.6875 -4.179688 5.679688 -4.507812 5.671875 -4.75 C 5.609375 -5.59375 5.148438 -6.015625 4.296875 -6.015625 C 3.816406 -6.015625 3.425781 -5.785156 3.125 -5.328125 C 2.832031 -4.878906 2.6875 -4.1875 2.6875 -3.25 L 2.6875 0 L 0.84375 0 L 0.84375 -7.125 L 2.6875 -7.125 L 2.6875 -5.96875 L 3.234375 -6.8125 C 3.703125 -7.144531 4.273438 -7.3125 4.953125 -7.3125 C 5.703125 -7.3125 6.289062 -7.132812 6.71875 -6.78125 C 7.15625 -6.4375 7.410156 -5.945312 7.484375 -5.3125 Z M 7.484375 -5.3125 "/></g></g></g><g fill="#222222" fill-opacity="1"><g transform="translate(179.418419, 220.821355)"><g><path d="M 7.765625 -7.125 L 7.765625 -1.78125 C 7.765625 -1.125 7.757812 -0.664062 7.75 -0.40625 C 7.71875 0.6875 7.367188 1.507812 6.703125 2.0625 C 6.035156 2.613281 5.128906 2.890625 3.984375 2.890625 C 2.941406 2.890625 2.128906 2.679688 1.546875 2.265625 C 0.972656 1.847656 0.644531 1.242188 0.5625 0.453125 L 0.546875 0.328125 L 2.34375 0.328125 L 2.359375 0.4375 C 2.398438 0.769531 2.566406 1.03125 2.859375 1.21875 C 3.148438 1.414062 3.53125 1.515625 4 1.515625 C 4.582031 1.515625 5.035156 1.367188 5.359375 1.078125 C 5.691406 0.785156 5.875 0.359375 5.90625 -0.203125 C 5.914062 -0.378906 5.921875 -0.671875 5.921875 -1.078125 L 5.921875 -1.25 L 5.390625 -0.453125 C 4.953125 -0.117188 4.359375 0.046875 3.609375 0.046875 C 2.617188 0.046875 1.828125 -0.273438 1.234375 -0.921875 C 0.648438 -1.578125 0.359375 -2.429688 0.359375 -3.484375 C 0.359375 -4.710938 0.679688 -5.65625 1.328125 -6.3125 C 1.984375 -6.976562 2.800781 -7.3125 3.78125 -7.3125 C 4.507812 -7.3125 5.066406 -7.175781 5.453125 -6.90625 L 5.921875 -6.171875 L 5.921875 -7.125 Z M 2.75 -1.90625 C 3.070312 -1.476562 3.507812 -1.265625 4.0625 -1.265625 C 4.625 -1.265625 5.070312 -1.453125 5.40625 -1.828125 C 5.75 -2.203125 5.921875 -2.800781 5.921875 -3.625 L 5.921875 -3.828125 C 5.921875 -4.566406 5.742188 -5.113281 5.390625 -5.46875 C 5.046875 -5.832031 4.628906 -6.015625 4.140625 -6.015625 C 3.578125 -6.015625 3.125 -5.816406 2.78125 -5.421875 C 2.445312 -5.023438 2.28125 -4.429688 2.28125 -3.640625 C 2.28125 -2.910156 2.4375 -2.332031 2.75 -1.90625 Z M 2.75 -1.90625 "/></g></g></g><g fill="#222222" fill-opacity="1"><g transform="translate(188.052954, 220.821355)"><g/></g></g><g fill="#222222" fill-opacity="1"><g transform="translate(190.650005, 220.821355)"><g><path d="M 4.265625 -9.421875 C 5.316406 -9.421875 6.117188 -9.15625 6.671875 -8.625 C 7.234375 -8.101562 7.566406 -7.398438 7.671875 -6.515625 L 5.78125 -6.515625 C 5.726562 -7.003906 5.566406 -7.378906 5.296875 -7.640625 C 5.035156 -7.910156 4.664062 -8.046875 4.1875 -8.046875 C 3.800781 -8.046875 3.488281 -7.953125 3.25 -7.765625 C 3.007812 -7.578125 2.890625 -7.304688 2.890625 -6.953125 C 2.890625 -6.554688 3.035156 -6.242188 3.328125 -6.015625 C 3.617188 -5.796875 4.128906 -5.601562 4.859375 -5.4375 C 5.867188 -5.207031 6.613281 -4.851562 7.09375 -4.375 C 7.570312 -3.90625 7.8125 -3.296875 7.8125 -2.546875 C 7.8125 -1.703125 7.476562 -1.035156 6.8125 -0.546875 C 6.15625 -0.0546875 5.347656 0.1875 4.390625 0.1875 C 3.265625 0.1875 2.367188 -0.0546875 1.703125 -0.546875 C 1.035156 -1.046875 0.65625 -1.773438 0.5625 -2.734375 L 2.453125 -2.734375 C 2.546875 -2.242188 2.765625 -1.863281 3.109375 -1.59375 C 3.460938 -1.320312 3.878906 -1.1875 4.359375 -1.1875 C 4.796875 -1.1875 5.15625 -1.289062 5.4375 -1.5 C 5.726562 -1.71875 5.875 -2.003906 5.875 -2.359375 C 5.875 -2.753906 5.734375 -3.070312 5.453125 -3.3125 C 5.171875 -3.550781 4.695312 -3.75 4.03125 -3.90625 C 3 -4.15625 2.226562 -4.488281 1.71875 -4.90625 C 1.207031 -5.320312 0.953125 -5.925781 0.953125 -6.71875 C 0.953125 -7.539062 1.269531 -8.195312 1.90625 -8.6875 C 2.550781 -9.175781 3.335938 -9.421875 4.265625 -9.421875 Z M 4.265625 -9.421875 "/></g></g></g><g fill="#222222" fill-opacity="1"><g transform="translate(198.789237, 220.821355)"><g><path d="M 7.59375 -7.125 L 4.734375 0.265625 C 4.359375 1.222656 3.953125 1.882812 3.515625 2.25 C 3.078125 2.625 2.488281 2.8125 1.75 2.8125 C 1.4375 2.8125 1.160156 2.796875 0.921875 2.765625 L 0.921875 1.484375 C 1.046875 1.503906 1.226562 1.515625 1.46875 1.515625 C 2.101562 1.515625 2.550781 1.195312 2.8125 0.5625 L 2.90625 0.328125 L 0 -7.125 L 2.0625 -7.125 L 3.828125 -1.40625 L 5.578125 -7.125 Z M 7.59375 -7.125 "/></g></g></g><g fill="#222222" fill-opacity="1"><g transform="translate(206.352832, 220.821355)"><g><path d="M 3.390625 -7.3125 C 4.210938 -7.3125 4.867188 -7.101562 5.359375 -6.6875 C 5.847656 -6.28125 6.132812 -5.738281 6.21875 -5.0625 L 4.359375 -5.0625 C 4.234375 -5.75 3.867188 -6.09375 3.265625 -6.09375 C 2.992188 -6.09375 2.785156 -6.019531 2.640625 -5.875 C 2.492188 -5.738281 2.421875 -5.554688 2.421875 -5.328125 C 2.421875 -5.054688 2.539062 -4.84375 2.78125 -4.6875 C 3.019531 -4.53125 3.441406 -4.375 4.046875 -4.21875 C 4.816406 -4.019531 5.394531 -3.742188 5.78125 -3.390625 C 6.164062 -3.046875 6.359375 -2.5625 6.359375 -1.9375 C 6.359375 -1.25 6.082031 -0.722656 5.53125 -0.359375 C 4.988281 0.00390625 4.285156 0.1875 3.421875 0.1875 C 2.535156 0.1875 1.8125 -0.00390625 1.25 -0.390625 C 0.695312 -0.785156 0.375 -1.378906 0.28125 -2.171875 L 2.125 -2.171875 C 2.195312 -1.796875 2.351562 -1.507812 2.59375 -1.3125 C 2.832031 -1.125 3.117188 -1.03125 3.453125 -1.03125 C 3.765625 -1.03125 4.015625 -1.097656 4.203125 -1.234375 C 4.398438 -1.367188 4.5 -1.5625 4.5 -1.8125 C 4.5 -2.082031 4.367188 -2.304688 4.109375 -2.484375 C 3.847656 -2.660156 3.410156 -2.820312 2.796875 -2.96875 C 2.078125 -3.144531 1.523438 -3.398438 1.140625 -3.734375 C 0.753906 -4.078125 0.5625 -4.535156 0.5625 -5.109375 C 0.5625 -5.796875 0.816406 -6.332031 1.328125 -6.71875 C 1.847656 -7.113281 2.535156 -7.3125 3.390625 -7.3125 Z M 3.390625 -7.3125 "/></g></g></g><g fill="#222222" fill-opacity="1"><g transform="translate(213.006115, 220.821355)"><g><path d="M 3.046875 -5.859375 L 3.046875 -2.5625 C 3.046875 -2.257812 3.050781 -2.046875 3.0625 -1.921875 C 3.09375 -1.578125 3.195312 -1.351562 3.375 -1.25 C 3.550781 -1.144531 3.894531 -1.113281 4.40625 -1.15625 L 4.40625 0.046875 C 4.019531 0.109375 3.613281 0.140625 3.1875 0.140625 C 2.507812 0.140625 2.023438 0.03125 1.734375 -0.1875 C 1.441406 -0.414062 1.273438 -0.789062 1.234375 -1.3125 C 1.210938 -1.53125 1.203125 -1.875 1.203125 -2.34375 L 1.203125 -5.859375 L 0.15625 -5.859375 L 0.15625 -7.0625 L 1.203125 -7.0625 L 1.203125 -8.828125 L 3.046875 -8.828125 L 3.046875 -7.0625 L 4.53125 -7.0625 L 4.53125 -5.859375 Z M 3.046875 -5.859375 "/></g></g></g><g fill="#222222" fill-opacity="1"><g transform="translate(217.838786, 220.821355)"><g><path d="M 7.3125 -3.703125 C 7.3125 -3.453125 7.300781 -3.242188 7.28125 -3.078125 L 2.21875 -3.078125 C 2.332031 -1.765625 2.882812 -1.109375 3.875 -1.109375 C 4.269531 -1.109375 4.597656 -1.210938 4.859375 -1.421875 C 5.128906 -1.640625 5.296875 -1.9375 5.359375 -2.3125 L 7.203125 -2.3125 C 7.023438 -1.5 6.632812 -0.878906 6.03125 -0.453125 C 5.425781 -0.0234375 4.691406 0.1875 3.828125 0.1875 C 2.804688 0.1875 1.972656 -0.128906 1.328125 -0.765625 C 0.679688 -1.410156 0.359375 -2.332031 0.359375 -3.53125 C 0.359375 -4.644531 0.691406 -5.550781 1.359375 -6.25 C 2.023438 -6.957031 2.898438 -7.3125 3.984375 -7.3125 C 5.023438 -7.3125 5.835938 -6.96875 6.421875 -6.28125 C 7.015625 -5.59375 7.3125 -4.734375 7.3125 -3.703125 Z M 3.890625 -6.015625 C 2.972656 -6.015625 2.4375 -5.4375 2.28125 -4.28125 L 5.40625 -4.28125 C 5.28125 -5.4375 4.773438 -6.015625 3.890625 -6.015625 Z M 3.890625 -6.015625 "/></g></g></g><g fill="#222222" fill-opacity="1"><g transform="translate(225.5764, 220.821355)"><g><path d="M 11.421875 -5.546875 C 11.460938 -5.242188 11.484375 -4.8125 11.484375 -4.25 L 11.484375 0 L 9.640625 0 L 9.640625 -3.703125 C 9.640625 -4.160156 9.625 -4.550781 9.59375 -4.875 C 9.488281 -5.632812 9.082031 -6.015625 8.375 -6.015625 C 7.507812 -6.015625 7.078125 -5.226562 7.078125 -3.65625 L 7.078125 0 L 5.25 0 L 5.25 -3.703125 C 5.25 -4.160156 5.234375 -4.550781 5.203125 -4.875 C 5.097656 -5.632812 4.691406 -6.015625 3.984375 -6.015625 C 3.117188 -6.015625 2.6875 -5.226562 2.6875 -3.65625 L 2.6875 0 L 0.84375 0 L 0.84375 -7.125 L 2.6875 -7.125 L 2.6875 -6.046875 L 3.21875 -6.890625 C 3.601562 -7.171875 4.109375 -7.3125 4.734375 -7.3125 C 5.296875 -7.3125 5.757812 -7.1875 6.125 -6.9375 C 6.5 -6.695312 6.757812 -6.367188 6.90625 -5.953125 L 7.609375 -6.890625 C 7.992188 -7.171875 8.5 -7.3125 9.125 -7.3125 C 9.78125 -7.3125 10.300781 -7.144531 10.6875 -6.8125 C 11.082031 -6.488281 11.328125 -6.066406 11.421875 -5.546875 Z M 11.421875 -5.546875 "/></g></g></g></svg>